<?xml version="1.0" encoding="utf-8"?>
<!-- Generator: Adobe Illustrator 23.0.3, SVG Export Plug-In . SVG Version: 6.00 Build 0)  -->
<svg version="1.1" id="Layer_1" xmlns="http://www.w3.org/2000/svg" xmlns:xlink="http://www.w3.org/1999/xlink" x="0px" y="0px"
	 viewBox="0 0 250 250" style="enable-background:new 0 0 250 250;" xml:space="preserve">
<style type="text/css">
	.st0{fill:#FFFFFF;}
	.st1{fill:#017BA2;}
</style>
<g>
	<path class="st0" d="M235.5,250h-221c-8,0-14.5-6.5-14.5-14.5v-221C0,6.5,6.5,0,14.5,0h220.9c8,0,14.5,6.5,14.5,14.5v220.9
		C250,243.5,243.5,250,235.5,250z"/>
	<path class="st1" d="M134,250v-97h-33v-38h33V85c0,0-1-48,44-48h34v36h-27c0,0-12-1-12,13s0,29,0,29h38l-5,38h-33v97H134z"/>
</g>
</svg>
