<?xml version="1.0" encoding="utf-8"?>
<!-- Generator: Adobe Illustrator 22.1.0, SVG Export Plug-In . SVG Version: 6.00 Build 0)  -->
<svg version="1.1" id="Layer_1" xmlns="http://www.w3.org/2000/svg" xmlns:xlink="http://www.w3.org/1999/xlink" x="0px" y="0px"
	 viewBox="0 0 1200 638" style="enable-background:new 0 0 1200 638;" xml:space="preserve">
<style type="text/css">
	.st0{fill:none;}
	.st1{fill:#231F20;}
	.st2{font-family:'CharlemagneStd-Bold';}
	.st3{font-size:245px;}
	.st4{font-size:161.4322px;}
	.st5{fill:#BE1E2D;}
	.st6{font-size:250px;}
	.st7{fill:none;stroke:#231F20;stroke-width:2;stroke-miterlimit:10;}
	.st8{font-size:230px;}
</style>
<rect x="72.7" y="239.7" class="st0" width="1010.3" height="190.7"/>
<text transform="matrix(1 0 0 1 72.7278 412.1819)" class="st1 st2 st3">C</text>
<text transform="matrix(1 0 0 1 270.9278 412.1819)" class="st1 st2 st4">ulinary</text>
<rect x="280" y="93" class="st0" width="776" height="189.1"/>
<text transform="matrix(1.1 0 0 1 280 268.999)" class="st5 st2 st6">I</text>
<text transform="matrix(1.1 0 0 1 280 268.999)" class="st7 st2 st6">I</text>
<text transform="matrix(1 0 0 1 400.9958 268.9988)" class="st5 st2 st8">con</text>
<text transform="matrix(1 0 0 1 400.9958 268.9988)" class="st7 st2 st8">con</text>
<g>
	<path d="M124.5,520.8c-0.9-1.8-25.2-49.5-31.6-62.1c-2.4-4.8-2.7-8.4-2-10.9c-3.9,0.1-7.7,0.3-11.5,0.4l19.6,73
		c0,0,3.3,10.9,18.5,7.6c4.3-0.9,8.2-1.7,11.6-2.5C126.1,523.9,124.8,521.3,124.5,520.8z"/>
	<path d="M434.1,508.5c0.3-0.5,25.8-39.8,25.8-58.8v-0.3c0.3-3.1-0.2-7.1-1.4-7.8c-0.1,0-0.2-0.1-0.5-0.1v-0.1
		c-115,0.4-239.2,2.1-361.5,6.1c-1.4,1.8-1.1,4.7,0.9,8.8c6.5,12.8,31.3,61.7,31.6,62.2l0.1,0.2c0.1,0.1,1.9,4.2,7.7,5.9v0.1
		c4.3-0.9,6.9-1.4,6.9-1.4s85-18.5,178.7-18.5c63.9,0,95.3,4.1,108.9,6.6C432,511.1,433,510.3,434.1,508.5z M147.5,491.7
		c-6.3,0-11.4-5.1-11.4-11.4s5.1-11.4,11.4-11.4c6.3,0,11.4,5.1,11.4,11.4S153.8,491.7,147.5,491.7z M389.4,483
		c-6.3,0-11.4-5.1-11.4-11.4s5.1-11.4,11.4-11.4s11.4,5.1,11.4,11.4C400.8,477.8,395.7,483,389.4,483z"/>
	<path d="M1054.6,463.3c0,0-37-13.1-82.8-15.3c-31.2-1.5-244.9-7.5-507.7-6.7c1.2,3.3,0.9,7.2,0.8,8.5
		c-0.1,20.6-25.5,59.7-26.6,61.4c-0.3,0.5-0.7,1-1,1.5c1.9,0.5,2.7,0.8,2.7,0.8s47.9,17.4,55.6,63.2c0,0,369.4-2.2,580.8-104.6
		L1054.6,463.3z"/>
</g>
</svg>
