<?xml version="1.0" encoding="utf-8"?>
<!-- Generator: Adobe Illustrator 22.1.0, SVG Export Plug-In . SVG Version: 6.00 Build 0)  -->
<svg version="1.1" id="Layer_1" xmlns="http://www.w3.org/2000/svg" xmlns:xlink="http://www.w3.org/1999/xlink" x="0px" y="0px"
	 viewBox="0 0 225 225" style="enable-background:new 0 0 225 225;" xml:space="preserve">
<style type="text/css">
	.st0{fill:#017BA2;}
</style>
<g>
	<path class="st0" d="M157.8,18.5c26.8,0,48.7,21.8,48.7,48.7v90.7c0,26.8-21.8,48.7-48.7,48.7H67.2c-26.8,0-48.7-21.8-48.7-48.7
		V67.2c0-26.8,21.8-48.7,48.7-48.7H157.8 M157.8,0.5H67.2C30.3,0.5,0.5,30.3,0.5,67.2v90.7c0,36.8,29.8,66.7,66.7,66.7h90.7
		c36.8,0,66.7-29.8,66.7-66.7V67.2C224.5,30.3,194.7,0.5,157.8,0.5L157.8,0.5z"/>
</g>
<g>
	<path class="st0" d="M113,74.5c21.2,0,38.5,17.3,38.5,38.5s-17.3,38.5-38.5,38.5S74.5,134.2,74.5,113S91.8,74.5,113,74.5 M113,56.5
		c-31.2,0-56.5,25.3-56.5,56.5s25.3,56.5,56.5,56.5s56.5-25.3,56.5-56.5S144.2,56.5,113,56.5L113,56.5z"/>
</g>
<circle class="st0" cx="173" cy="53" r="13.5"/>
</svg>
