<?xml version="1.0" encoding="utf-8"?>
<!-- Generator: Adobe Illustrator 22.1.0, SVG Export Plug-In . SVG Version: 6.00 Build 0)  -->
<svg version="1.1" id="Layer_1" xmlns="http://www.w3.org/2000/svg" xmlns:xlink="http://www.w3.org/1999/xlink" x="0px" y="0px"
	 viewBox="0 0 622 168" style="enable-background:new 0 0 622 168;" xml:space="preserve">
<style type="text/css">
	.st0{fill:#363436;}
	.st1{fill:url(#SVGID_1_);}
	.st2{fill:url(#SVGID_2_);}
	.st3{fill:url(#SVGID_3_);}
	.st4{fill:url(#SVGID_4_);}
	.st5{fill:url(#SVGID_5_);}
	.st6{fill:url(#SVGID_6_);}
	.st7{fill:url(#SVGID_7_);}
	.st8{fill:url(#SVGID_8_);}
	.st9{fill:#353435;}
</style>
<g>
	<g>
		<path class="st0" d="M248.8,121l-6.8,1c-5.2,0-10-3.1-12.6-8.7l-4.5-9.5c-1-2.4-2.5-3.8-4.1-3.9h-18v21.8h-9.7V50.6h31.8
			c13.6,0,24.7,11,24.7,24.7c0,10.6-6.9,19.8-16.4,23.2l4.5,10.1c1.1,2.4,2.5,3.8,4.1,3.8h6.8V121z M202.9,59.7v31h22.2
			c7.9,0,15-7.5,15-15.5c0-8.1-7-15.5-15-15.5H202.9z"/>
		<path class="st0" d="M299.2,105.8l5.9,7.5c-1.2,1.5-7.6,8.7-21.6,8.7c-15.1,0-27.2-12-27.2-27.5c0-15,11.9-27.3,27-27.3
			c14.5,0,26.2,11.8,26.2,27.3c0,1.2-0.1,2.8-0.2,3.5h-43.1c1.7,8.3,8.7,14.6,17.2,14.6C292.8,112.6,297.6,107.7,299.2,105.8z
			 M266.7,89H299c-1.2-6.5-7.7-12.1-15.7-12.1C275.2,76.9,268.6,82,266.7,89z"/>
		<path class="st0" d="M358.1,105.8l5.9,7.5c-1.2,1.5-7.6,8.7-21.6,8.7c-15.1,0-27.2-12-27.2-27.5c0-15,11.9-27.3,27-27.3
			c14.5,0,26.2,11.8,26.2,27.3c0,1.2-0.1,2.8-0.2,3.5h-43.1c1.7,8.3,8.7,14.6,17.2,14.6C351.8,112.6,356.5,107.7,358.1,105.8z
			 M325.6,89H358c-1.2-6.5-7.7-12.1-15.7-12.1C334.1,76.9,327.6,82,325.6,89z"/>
		<path class="st0" d="M401.7,76.3H390v45.4h-9.7V76.3h-9.7v-8.8h9.7v-3.6c0-9.5,4-18,14.8-18l6.6,1.9v6.8h-6.6
			c-3.8,0-5.1,5.3-5.1,9.3v3.6h11.7V76.3z"/>
	</g>
	<g>
		<linearGradient id="SVGID_1_" gradientUnits="userSpaceOnUse" x1="440.7216" y1="-74.3982" x2="440.7216" y2="171.0623">
			<stop  offset="0" style="stop-color:#FFFFFF"/>
			<stop  offset="0.3958" style="stop-color:#02BEE1"/>
			<stop  offset="0.9892" style="stop-color:#00436D"/>
		</linearGradient>
		<path class="st1" d="M459.7,62.6c-4.2-2-9.1-2.8-14.5-2.8c-13.4,0-27.1,10.6-27.1,26.2c0,15.6,13.7,26.2,27.1,26.2
			c8.7,0,16.2-4,21-9.8l6.9,6.9c-6.9,7.6-16.9,12.6-27.9,12.6c-19.7,0-36.8-16.1-36.8-35.9c0-19.8,17-35.9,36.8-35.9
			c8.5,0,16.5,2.1,24.2,7v11.7h-8.5L459.7,62.6z"/>
		<linearGradient id="SVGID_2_" gradientUnits="userSpaceOnUse" x1="504.8852" y1="-74.3988" x2="504.8852" y2="171.0621">
			<stop  offset="0" style="stop-color:#FFFFFF"/>
			<stop  offset="0.3958" style="stop-color:#02BEE1"/>
			<stop  offset="0.9892" style="stop-color:#00436D"/>
		</linearGradient>
		<path class="st2" d="M498.7,86.9c9.6,0,15.8,1.3,21.1,3.9v-3.4c0-7.4-6.3-11.2-13.3-11.2c-5.9,0-9.2,0.6-13.1,2.6l-0.6,3.9h-7.7
			v-9.5c6.6-3.8,11.9-6,21.4-6c13.3,0,23,7,23,22.1v32.4h-7.7l-1.5-8c-5.3,4.3-11.7,8.3-21.5,8.3c-11.5,0-18.4-7.8-18.4-17.5
			C480.3,94.8,487.2,86.9,498.7,86.9z M500.6,113.4c7.6,0,13.9-4.2,19.2-9.2v-4.7c-5.1-2.5-12.5-3.9-20.1-3.9c-7.4,0-10,4.5-10,8.9
			C489.7,108.9,493.3,113.4,500.6,113.4z"/>
		<linearGradient id="SVGID_3_" gradientUnits="userSpaceOnUse" x1="549.6845" y1="-74.4089" x2="549.6845" y2="171.0803">
			<stop  offset="0" style="stop-color:#FFFFFF"/>
			<stop  offset="0.3958" style="stop-color:#02BEE1"/>
			<stop  offset="0.9892" style="stop-color:#00436D"/>
		</linearGradient>
		<path class="st3" d="M565.2,76.3h-11.7v45.4h-9.7V76.3h-9.7v-8.8h9.7v-3.6c0-9.5,4-18,14.8-18l6.6,1.9v6.8h-6.6
			c-3.8,0-5.1,5.3-5.1,9.3v3.6h11.7V76.3z"/>
		<linearGradient id="SVGID_4_" gradientUnits="userSpaceOnUse" x1="593.7207" y1="-74.388" x2="593.7207" y2="171.0593">
			<stop  offset="0" style="stop-color:#FFFFFF"/>
			<stop  offset="0.3958" style="stop-color:#02BEE1"/>
			<stop  offset="0.9892" style="stop-color:#00436D"/>
		</linearGradient>
		<path class="st4" d="M612.1,105.8l6.1,7.6c-0.5,0.5-8.5,8.5-23.2,8.5c-15.1,0-28.1-12.3-28.1-27.5c0-15,13.1-27.3,28.1-27.3
			c13.7,0,25.7,8.5,25.7,19.4c0,6.3-5.1,11.4-11.4,11.4h-32.5c1.7,8.3,9.5,14.6,18.2,14.6C607.1,112.6,612.1,105.6,612.1,105.8z
			 M577.4,89h31.8c1.3,0,2.2-1.2,2.2-2.4c0-4.5-6.7-10-16.6-10C587,76.6,579.9,81.9,577.4,89z M596.3,61.6H590l6.2-11h8.9
			L596.3,61.6z"/>
	</g>
	<g>
		<g>
			<linearGradient id="SVGID_5_" gradientUnits="userSpaceOnUse" x1="91.5024" y1="11.1989" x2="91.5024" y2="164.8312">
				<stop  offset="0" style="stop-color:#FFFFFF"/>
				<stop  offset="0.3958" style="stop-color:#02BEE1"/>
				<stop  offset="0.9892" style="stop-color:#00436D"/>
			</linearGradient>
			<path class="st5" d="M181,39.9C166.3,41,146.4,62,136.5,71.5c-9.8,9.5-15.8,5.9-24.6,4.5c-8.8-1.5-1.8-6.7-1.8-6.7
				c-6.7-1-11.8,3.3-11.8,3.3C91.3,73,81,67.2,76.2,65.9c-4.8-1.3-12-4.2-12-4.2l6.7,0.3C64.5,46,70,24,70,24
				c-23.2,20.1-9.2,50.2-12,46.2c-0.2-0.2-0.3-0.5-0.5-0.7c-2.5-4.4-4.5-13.6-4.5-13.6s-5.9,5.7-15.7,14.8c-9.9,9-6.7,29.8-6.7,29.8
				c0.4,6.3-11.3,13.8-19.5,20.8c-3.3,2.8-6.5,5.8-9.1,8.3c21.6-4.1,33.5-17.1,33.5-17.1c2,1.6,7,1.8,7,1.8
				c-5.8-3.3-7.5-15.3-7.5-15.3c0.9,2.1,4.7,4.9,8,6.5c3.3,1.6,4.9-2.6,6.6-4.2c1.7-1.5,5.4,0.7,7.8-1c2.3-1.6,9-4.9,14-3.1
				c5,1.8,8.7-1.3,8.7-1.3c4,2.3,7.3,1.8,7.3,1.8c11.8-1.1,11.1,3.6,11.1,3.6C112.8,84.9,91,76.9,91,76.9c7.5,0,14.9,7.5,14.9,7.5
				l39.6-1.6c-11,2.7-10.9,7.5-10.9,7.5c-1.8-3.6-6.9-3-6.9-3c2.9,2.3,5.4,6.8,9.3,13.6c3.8,6.9,11,14.9,18.7,21.1
				c7.7,6.2,12.6,3.4,12.6,3.4s-0.7-1-4.1-2.5c-3.5-1.5-3.7-9.8-5-15.9c-1.3-6.1-3.7-14-3.7-20.1c0-6.1,9.4-20.6,13.6-27.2
				c4.2-6.6,6-9.9,6-9.9c0.7-0.8,2.8,0.6,2.8,0.6s2.6-1.7,2-4.9C179.3,42.4,181,39.9,181,39.9z"/>
			<linearGradient id="SVGID_6_" gradientUnits="userSpaceOnUse" x1="113.5196" y1="11.1993" x2="113.5196" y2="164.8304">
				<stop  offset="0" style="stop-color:#FFFFFF"/>
				<stop  offset="0.3958" style="stop-color:#02BEE1"/>
				<stop  offset="0.9892" style="stop-color:#00436D"/>
			</linearGradient>
			<path class="st6" d="M118.6,88.7c0,0-5.7,0-10.1,3.4c0,0,2.7,4.5,9.2,4.4C117.7,96.5,112.4,93,118.6,88.7z"/>
			<linearGradient id="SVGID_7_" gradientUnits="userSpaceOnUse" x1="107.6591" y1="11.1942" x2="107.6591" y2="164.8337">
				<stop  offset="0" style="stop-color:#FFFFFF"/>
				<stop  offset="0.3958" style="stop-color:#02BEE1"/>
				<stop  offset="0.9892" style="stop-color:#00436D"/>
			</linearGradient>
			<path class="st7" d="M96.6,106.3c0,0-6.3,10.1-12.3,13.3c0,0,28.1,11.5,46.8,6.7C131,126.3,106.9,123.4,96.6,106.3z"/>
			<linearGradient id="SVGID_8_" gradientUnits="userSpaceOnUse" x1="75.1796" y1="11.1871" x2="75.1796" y2="164.8389">
				<stop  offset="0" style="stop-color:#FFFFFF"/>
				<stop  offset="0.3958" style="stop-color:#02BEE1"/>
				<stop  offset="0.9892" style="stop-color:#00436D"/>
			</linearGradient>
			<path class="st8" d="M91.2,104.1c-6.9,4.1-13.4,2.2-21.4,0.5c-8-1.6-10.5,4-10.5,4c2.6-1.4,4.9,0,16.9,2.3
				C88,113.2,91.2,104.1,91.2,104.1z"/>
		</g>
		<g>
			<path class="st9" d="M103.7,3.8c-1.3-0.5-3.2-0.7-3.4,0.1l1.1,0.1c0.1-0.1,0-0.3,0.3-0.4c-0.2,0.2,0.2,0.3,0.6,0.3
				c0.4,0.1,1,0.1,1.1,0.2c0.1,0.3-1.2-0.2-1.1,0c0.4,0,0,0.2-0.2,0.2c-0.2-0.1,0-0.3,0-0.3c-0.5-0.2-0.6,0.2-1.3,0
				c-0.1,0.2,0.3,0.2,0.4,0.3c-1.3,0.1-0.8-0.5-1.5-0.6c-0.5,0.1,0.3,0.2-0.3,0.3c-0.5-0.2-1-0.4-1.8-0.2c0.3,0,0.5,0,0.4,0.2
				c-0.4,0-0.5,0.1-0.7,0.2c-1,0-1.3-0.2-2.2-0.2c-0.1,0.2,0.3,0.2,0,0.3C94.1,4.3,93.8,4,92.8,4c-0.4,0.2-1.4,0.1-1.8,0.3
				c0.4,0,0.7,0,0.9,0.2c-0.4,0.2-1.5,0.1-2.2,0.2C89.4,4.7,89.4,5,88.8,5c-0.1-0.2,0.2-0.2,0.2-0.4c-0.9,0.1-1.4,0.3-2,0.4
				c-0.7-0.1-1.8,0.2-2.6,0.5c-0.4,0-0.8,0-1.3,0.1c-0.4,0-0.8,0.1-1.2,0.1c-0.8,0.1-1.5,0.2-1.9,0.5c0-0.3-0.5-0.2-0.9-0.1
				c-0.6,0.4-1.3,0.3-2.1,0.7c0.8-0.5-1.2,0.3-0.9-0.2c0.7-0.5,1.7-0.3,2.4-0.4c0.1-0.2,0.5-0.3,0.8-0.3c0.4,0,0.7-0.1,0.9-0.3
				c-0.8,0.2-0.7-0.1-1.3,0.1c0.1,0.2-0.1,0.3-0.6,0.4c0-0.2,1.1-0.6,0.4-0.6c0,0.2-1,0.2-0.9,0c0.5-0.2,0.5-0.7,0.1-0.8
				c-1,0.3-1.8,0.4-2.4,0.6c-0.1,0,0,0.2-0.2,0.2c-0.2,0.1-1,0.1-0.9,0.3c0.3,0,0.6-0.1,0.9-0.2c0.3-0.1,0.7-0.2,0.9,0
				c0,0.1-0.1,0.6-0.8,0.8c0.4-0.1,0.5,0,0.5,0.3c-0.2,0-0.2,0.1-0.4,0.2c-0.7,0.3-0.9,0.1-1.5,0.3c-0.1,0.4-1.1,0.2-1,0.6
				c0.6,0.1,1.4-0.5,2.1-0.7c0,0.2-0.8,0.4-0.8,0.6c0.5-0.1,1-0.3,1.4-0.4c0.4-0.1,0.8-0.3,1.2-0.4c0,0.1-0.3,0.2,0,0.2
				c2.9-1.1,7.3-1.2,11.1-2c-0.2,0-0.3-0.1,0-0.2c0.2,0.1,1,0,1.1,0.2c0.6-0.4,1.5-0.1,2.2,0c0.5,0,0.8-0.1,1.3-0.1
				c0.4,0,0.7,0.1,1.1,0.1C95,5,96.5,5.1,98,5.1c1.5,0.1,3.1,0.2,4.6,0.4c1.5,0.2,3.1,0.3,4.5,0.6c0.7,0.1,1.4,0.3,2.1,0.4
				c0.7,0.1,1.3,0.3,1.9,0.4c0.4-0.2-0.7-0.2-0.6-0.4c0.9,0.1,1.5,0.8,2.2,0.5c-0.6-0.2-0.8-0.3-1-0.4c0.4-0.1,0.7,0.2,1.5,0.3
				c-0.5,0.2,0.1,0.2,0.1,0.6c-1-0.1-2.1-0.4-3.5-0.7c-0.9-0.2-2-0.5-2.4-0.2c0.5,0.1,1.3,0.2,2.2,0.4c0.9,0.2,1.7,0.4,2.3,0.6
				c0.4-0.2,1.3,0.2,1.5,0.3c2.8,0.7,5.7,1.7,7.8,2.2c-0.1-0.1-0.9-0.5-0.3-0.3c0.7,0.3,0.6,0.5,1.1,0.8c0.6,0-0.4-0.3,0-0.6
				c0.4,0.3,1.2,0.7,0.6,0.8c0.6,0.2,1.3,0.8,1.7,0.6c-0.6-0.2-1-0.4-1.2-0.7c0.2-0.1,0.7,0,1.1,0.2c0.4,0.2,0.7,0.4,0.5,0.6
				c0.6,0.4,0.5,0,0.9,0.1c0.5,0.6-0.6,0.1-1,0.1c0.4,0.4,1.2,0.8,2.1,1.1c0.3-0.2-1-0.5-0.6-0.8c1.3,0.8,1.8,0.6,3,1
				c-0.6,0.3,1.5,0.8,0.9,1.1c-0.6-0.5-1.4-0.5-1.9-1.1c0.2,0.1,0.6,0.3,0.6,0.2c-0.2-0.1-0.2-0.2-0.3-0.3c-0.4-0.2-0.3,0-0.5,0
				c-0.4-0.1-0.8-0.3-0.5,0.1c0,0.3,0.4,0,0.8,0.3c0.9,0.6,2.2,1.4,3,1.4c-0.2-0.2-1.1-0.4-0.9-0.6c0.1-0.1,0.1-0.2,0.3-0.1
				c-0.3,0.2,0.4,0.5,1,0.9c-0.1,0.1-0.3,0-0.3,0.1c1.1,0.6,2,1.1,2.7,1.5c0.8,0.5,0.9,0.5,1.5,0.9c0.5,0.3,1.2,0.6,1.3,0.7
				c0,0,0.2,0.3,0.4,0.5c0.7,0.6,1.4,0.9,1.8,1.2c0.4,0.3,0.6,0.6,1,0.8c0.2,0.2,0.5,0.2,0.8,0.4c0.2,0.1,0.2,0.3,0.5,0.5
				c0.2,0.2,0.5,0.1,0.6,0.3c0.1,0.1,0.3,0.5,0.2,0.5c-0.8-0.5-1-1-1.6-0.8c-1.2-1.2-2.2-1.2-3.2-2.3c-0.2,0-0.3,0-0.5,0
				c-0.4-0.8-2.7-1.8-3.8-2.5c-0.5-0.3-0.8-0.7-1.2-0.9c-1.3-0.8-2.8-1.3-3.7-1.9c-0.3-0.1-0.2,0.3-0.6,0.1c-0.8-0.4-0.7-0.7-1.7-1
				c-0.4,0,0.1,0.5-0.8,0.1c0.3-0.2,0-0.4-0.2-0.6c-0.9-0.3-0.9-0.4-1.6-0.6c-0.8-0.8-1.9-0.7-3.2-1.2c-0.1,0.1-0.1,0.3-0.3,0.2
				c0.1-0.2-0.2-0.3-0.3-0.4c-1.2-0.4-2.2-0.6-3.4-0.9c-0.3-0.1-0.1-0.2-0.6-0.3c-0.4-0.1-1-0.3-1.6-0.4c-0.6-0.1-1.3-0.2-2-0.4
				c-0.3-0.1-0.3-0.2-0.6-0.2c-0.8-0.1-1.6-0.3-2.5-0.4c-0.9-0.1-1.7-0.2-2.4-0.3c-0.4-0.1-0.5-0.2-0.8-0.2c-0.5,0-1.1,0.1-1.5,0
				c-0.6-0.1-1.5-0.3-1.9-0.1c-0.2-0.1-0.5-0.1-0.6-0.2c-0.5,0-0.7,0.1-1.1,0.1c-0.9,0-2.3-0.3-3.2-0.3c-0.3,0-0.5,0.1-0.7,0.1
				c-0.2,0-0.2-0.2-0.6-0.2c-0.4,0-0.5,0.1-0.9,0.1c-0.1,0-0.5-0.1-0.9-0.1c-1,0.1-2.7,0.4-3.5,0.4C90.1,6.6,89.9,7,89.5,7
				c-0.1,0-0.3-0.1-0.7-0.1c-1.2,0-2,0.3-2.6,0.4c-0.3,0.1-0.7,0-1.1,0c-0.8,0.1-1.2,0.3-1.9,0.2c-0.6,0.2-0.9,0.4-1.5,0.5
				c0.1-0.1,0.4-0.5-0.1-0.5c-0.5,0.1-0.1,0.5-1,0.5c0-0.1,0.3-0.2,0.4-0.3c-1.9,0.2-3.1,0.8-4.7,0.9c0,0.2,0.3,0.1,0.5,0.2
				c-0.9,0-1.7,0.3-2.7,0.7c-0.7,0-1.4,0.2-2,0.4c-0.6,0.2-1.1,0.5-1.6,0.7c-1.6,0.6-4.5,1.7-5.5,2c-0.7,0.3-1.3,0.7-1.9,0.9
				c-1.2,0.5-2.5,1.1-3.2,1.4c-0.2,0.1-0.2,0.2-0.5,0.4c-0.4,0.2-0.7,0.4-1.1,0.5c-0.3,0.2-0.7,0.4-1,0.6c-0.7,0.4-1.3,0.8-2.1,1.2
				c-8.6,5-16.8,11.9-22.7,20.4c0.2,0.1,0.4-0.1,0.6,0.2c-0.4,0.5-0.8,1-1,0.9c0.5-0.6,0.6-0.8,0.2-0.9c-0.6,0.6-0.2,0.6-0.6,1.2
				c-0.4,0.1-1,1.1-1.5,1.8c0.1,0.1,0.2,0.1,0.1,0.3c-0.8,0.8-0.6,2-0.8,1.3c-0.2,0.2-0.2,0.7-0.4,0.8c0,0-0.1-0.1-0.2-0.1
				c-0.3,0.4-0.7,1.1-1.1,1.7c-0.4,0.7-0.8,1.5-1.2,2.2c-0.5,0.9-1,2-1.4,2.9c-0.1,0.3-0.1,0.6-0.2,0.9c-0.5,1.1-1.1,2.2-1.3,3.2
				c0.3-0.1,0.3-1,0.5-0.9c0.3-0.1,0,0.5-0.2,0.9c0.2,0,0.1,0.3-0.1,0.7c0.2,0.1,0.4-0.2,0.3,0.4c-0.3,0.7-0.6,1.5-0.9,1.5
				c0.6-1,0.7-1.8,0.4-2.2c-0.2,0.2-0.4,0.5-0.5,0.9c-0.1,0.4-0.2,0.8-0.3,1.1c-0.1,0.4-0.3,0.4-0.4,0.8c-0.1,0.4,0,0.8-0.1,1.1
				c0,0-0.3,0.2-0.4,0.5c-0.2,0.5,0.1,0.7-0.3,1.3c0.1-0.2,0.3-0.8,0.2-0.9c-0.3,0.6-0.3,1.2-0.5,1.9c-0.4,1.2-1,2.9-0.6,3.2
				c0.4-0.5,0.1-0.7,0.3-1.3c0.1,0,0.2-0.3,0.3-0.4c0,0.7,0.3,0.5,0.6,0.2c-0.1,0.4-0.4,1,0,0.9c0.1-0.8,0.3-1.8,0.8-1.7
				c0.1,0.2,0,0.6-0.1,1.1c-0.1-0.1-0.1-0.4-0.1-0.5c-0.2,0.5-0.2,0.8-0.2,1c0.2,0.2,0.3-0.3,0.4-0.3c0.1,0,0.2,0.2,0.3,0.1
				c0.1-0.1,0.3-0.9,0.4-0.5c0.4-0.6,0-1.1,0.3-1.2c-0.1,0.6,0.2,0.6,0.2,0.7c-0.1,0.8-0.4,0.3-0.5,0.7c0,0.3,0.5,0.2,0.1,0.9
				c-0.4,0.1,0-0.7-0.4-0.6c-0.3,0.7,0,0.7,0,1.1c-0.3,0.3-0.5,0-0.7-0.2c-0.1,0.2-0.2,0.5-0.3,0.3c-0.3,0.6-0.1,0.8-0.1,1.1
				c-0.4,0.5-0.1-0.6-0.4-0.1c-0.2,1.1-0.4,1.1-0.7,0.7c-0.2,0.7-0.1,0.9,0,1.3c-0.2-0.1-0.2,0.7-0.3,1c0.2,0.3,0.3-0.7,0.5-0.5
				c-0.1,0.6,0.4,0.3,0.3,0.9c-0.3-0.2-0.5,0-0.7,0.1c-0.2,0.5,0.2,1-0.2,1.3c0-0.4-0.3-0.7-0.5-0.3c0.1-0.6,0.1-0.7-0.1-0.5
				c-0.3,0.1,0.1,0.4,0,0.7c-0.2-0.1-0.3,0.1-0.4,0.6c0.2,0,0.3,0.1,0.3,0.3c0.1-0.3,0.1-0.8,0.2-0.8c0.1,0.5,0.3,1.3-0.1,1.9
				c0.4,0.2,0.5-0.7,0.9-0.5c0.1-1.2,0.5-0.9,0.6-2c0-0.3-0.3-0.1-0.3-0.5c0.2-0.5,0.4-1,0.6-1.8c0.3-0.6,0.8,0,1.1-1.2
				c-0.2-0.4-0.6,0.7-0.6,0c0.2-0.3,0.4-0.7,0.7-0.7c0.1-0.5,0.3-1.2,0.5-1.1c-0.2,0.8-0.5,1.1-0.3,1.6c0.3-1.1,0.7-2.3,0.9-3.2
				c0.1-0.3,0-0.4,0.1-0.8c0,0,0.4-0.7,0.1-0.6c-0.2,0.1-0.3,0.7-0.5,0.5c0.1-0.2,0-0.3,0-0.4c0.2-0.5,0.4-0.3,0.6-0.9
				c-0.3-0.2-0.5,0.5-0.7,0.6c0-0.5,0.3-1.1,0.6-1.3c0.4-0.3,0,0.1,0-0.4c0.1-0.4,0.4-1.1,0.5-0.5c0.3-0.6-0.2-0.4,0-0.9
				c0.2-0.5,0.4-1.2,0.6-1.1c0.4-0.1-0.5,1.6-0.1,1.1c0.4-1.1,0.8-2,1.1-2.9c0.4-0.9,0.7-1.6,1-2.3c-0.1-0.1,0-0.5-0.1-0.7
				c-0.5,0.3-0.4,1.3-0.6,1.3c0.1-0.5-0.5,0-0.3-0.4c0.3-0.5,0.7-1.3,0.8-1.5c0.1,0.3,0.4,1.2,0.8,0c-0.2-0.2-0.3,0.2-0.5,0
				c0.3-0.8,0.5-1.4,0.3-1.8c0.4,0,1.3-1.3,1.5-2.2c0.3,0.1,0.8-0.9,1.1-0.8c0,0.5-0.4,1.2-0.8,2c-0.3,0.6-0.4,1.3-0.6,1.8
				c-0.4,1-1.2,2.1-1.6,3.3c-0.3,0.9-0.7,1.9-1.1,2.8c-0.3,1-0.6,1.8-0.9,2.4c0.2-0.1-0.2,0.9-0.2,1c0,0-0.1-0.2-0.1-0.3
				c-0.5,0.9-0.9,3,0,2c-0.1-0.3,0.2-1.1,0.1-1.5c0.1,0,0.3-0.2,0.4-0.1c-0.3,1.2-0.3,1-0.5,2c-0.2,0-0.4,0-0.8,0.4
				c-0.3,0.6,0.1,0.5,0,0.9c-0.3,1.2-0.8,2.5-0.7,3.2c-0.4,0.9-0.6,2-0.8,3c-0.2,1-0.2,2-0.3,2.8c0.3-1.3,0.6-0.4,1-0.2
				c0.2-0.7-0.3-0.6,0-1.5c0.3-0.2,0.7-0.5,0.7,0.4c-0.1,0-0.2-0.1-0.2-0.3c-0.3,1.5-0.7,2.7-1.1,3.5c-0.1-0.6,0.6-1.6,0-2.1
				c-0.1,1.1-0.2,0.5-0.3,0.8c0-0.1,0,0.3,0,0.4c-0.1,0.2-0.2,0.4-0.3,0.6c-0.1,0.6,0,1.3-0.1,2.1c0-0.2,0.2-0.5,0.2-0.2
				c-0.3,3.4,0,4.9-0.1,8.7c0.2,0.2,0.3,0.5,0.5,0.6c0.1-1.1-0.4-1.3,0-1.6c-0.1-0.3-0.5,0-0.4-0.6c0.1,0,0.2,0.4,0.3,0
				c-0.2-0.2,0-1.3,0-1.8c0.3,0.5,0-0.6,0.2-1.2c-0.4,0.2-0.2-0.7-0.4-0.9c0.1-0.8,0.4,0.2,0.5-0.6c-0.2-0.4-0.5,0.2-0.5-0.7
				c0.1-0.5,0.7-0.7,0.3-1.2c0,0.6-0.4,1-0.3,0.6c0-0.7,0.4-0.5,0.4-1.2c0-0.5-0.6-0.9-0.2-1.5c0,0.5,0.1,0.7,0.3,0.9
				c0.3-0.9,0.1-1.4,0.4-2.4c0.2,0,0.3-0.3,0.6-0.1c0.3-1.2,0.4-2.5,0.6-3.1c0.2-0.9,0.6-1.7,0.4-2.2l-0.4,1.8
				c-0.2-0.4-0.1,0-0.5,0.5c-0.1,0.1-0.2,0.2-0.4,0.3c0-0.1,0-1,0.2-1c0,0.2,0,0.5,0,0.6c0.3-1-0.1-0.8-0.1-1.5
				c0.1-0.4,0.2-1.4,0.4-1.1c0.1-1,0.5-2.2,0.2-2.7c0.3-0.3,0.6-0.4,0.8-0.8c-0.1-0.3-0.4-0.3-0.1-0.9c0.3-0.4,0.6-0.4,0.8-1.2
				c-0.1-0.1-0.3,0-0.3-0.3c0.2-0.4,0.1-0.7,0.1-1c0.1-0.3,0.3-0.3,0.4-0.5c0,0-0.2-0.4,0.1-0.4c0.1,0.1-0.1,0.5,0.1,0.5
				c0.2-0.8,0.5-0.5,0.7-1.3c-0.3-0.1,0.2-0.9,0.2-1.2c0.1,0,0.2-0.2,0.3-0.1c0.1,0.4-0.5,0.8-0.3,1.2c0-0.5,0.5-0.4,0.3-0.1
				c-0.2,0.4-0.5,0.5-0.7,1.2c-0.1-0.1-0.3,0.2-0.2,0.3c0.3-0.4,0.6-0.3,0.2,0.5c-0.4-0.2-0.7,0.2-1,0.7c0.2,0.8,0.5-0.7,1-0.3
				c-0.2,0.9-0.7,0.8-0.6,1.5c-0.3,0.2-0.5,0.1-0.8,0.6c0,0.2,0,0.4,0.1,0.7c-0.3,0.3-0.6,2.4-0.7,1.7c-0.2,0.6,0.1,0.6,0,1.1
				c-0.2,1.1-0.5,1.7-0.4,2.4c0.4-0.4,0.2-1,0.3-1.4c0-0.1,0.3,0.1,0.3-0.3c-0.2-0.1-0.2,0.2-0.4,0.3c0.1-0.8,0.3-0.9,0.6-0.9
				c0.1-0.9,0.4-2,0.8-3.1c-0.1-0.1-0.3,0.2-0.3-0.1c0.2-0.6,0.5-0.2,0.7-0.6c0.1-0.6,0.4-1.4,0.6-2.1c0.3-0.7,0.5-1.4,0.5-1.7
				c-0.1,0.2-0.2,0.5-0.3,0.5c0.2-0.8,0.5-0.8,0.7-1.2c0.3-0.8,0.4-1.4,0.5-2c0.1,0,0.3,0.2,0.4-0.2c0.2-0.8-0.3,0.1-0.3-0.3
				c0.1-0.2,0-0.3,0.1-0.4c0.2-0.2,0.3,0.1,0.5-0.4c0.6-1.3,0.4-1.8,0.7-2.8c0.3,0,0.8-0.7,0.8,0c0.1-0.3,0.6-0.9,0.4-0.9
				c-0.3,0.3-1,0.9-0.7,0c0.5,0.2,0.8-1.4,1.5-1.7c-0.2,0.4-0.2,0.6-0.1,0.7c0.4-0.7,0.4-1.1,0.9-1.8c0.2-0.3,0.4-0.2,0.7-0.8
				c-0.3-0.3,0-1.1,0.2-1.8c-0.1,0.1-0.2,0.2-0.3,0.1c0.6-0.7-0.1-0.6,0.4-1.2c0.4,0,0,0.4,0.1,0.6c0.5-1.2,1.7-2.1,1.7-3
				c-0.4,0.2-0.4,0.6-0.7,1c-0.3,0.1-0.6,0-0.9,0.3c0,0.4,0.7-0.3,0.4,0.3c-0.6,0.8-1,1.1-1.4,1.7c-0.3-0.4,1-1.4,0.8-1.7
				c-0.8,1.3-0.3-0.2-0.8,0.2c0.1,0.1-0.1,0.4-0.2,0.3c-0.3-0.4,0.6-0.7,0.5-0.9c-0.5,0.3-0.7,0.4-1,1.3c-0.3-0.1-0.7,0.8-1,0.8
				c0.2-0.3,0.4-0.8,0.4-1c-0.5,0.5-0.5,1.2-0.8,1.2c-0.4,0,0.3-0.9,0.5-0.9c-0.3-0.1-0.1-0.5,0.1-0.9c0.2-0.1,0.5-0.5,0.8-0.5
				c-0.3,0.4-0.4,0.7-0.3,0.8c0.3-0.5,0.2-0.7,0.5-1.2c0.1,0,0.2,0.1,0.4-0.2c0-0.5,0.4-0.7,0.6-1.1c0.1-0.1-0.1-0.2,0.1-0.5
				c0,0,0.3-0.2,0.5-0.4c0.3-0.4,0.6-0.9,1-1.3c0.4-0.5,1.1-1.4,1.1-1.8c-0.2,0.3-0.6,0.9-0.7,0.5c0.3-0.4,0.4-0.3,0.7-0.8
				c0.3-0.6-0.3-0.3-0.2-0.7c0.2,0.4,0.8-0.7,1.1-0.7c0.4-0.5,0.4-1.3,1.1-1.6c-0.5,0.5-0.1,0.5-0.3,0.8c-0.5,0.7-0.7,1-1.4,1.6
				c0.1,0.2-0.4,0.7-0.1,0.7c0.4-0.7,1.1-1.4,1.7-2.1c0.6-0.7,1.2-1.3,1.4-1.8c0.1,0.1,0.4-0.3,0.6-0.3c0-0.3,0.5-0.7,0.8-1
				c0.2-0.3,0.6-0.8,0.8-1c0.1-0.1,0.3,0,0.4-0.1c0.5-0.5,1-1,1.6-1.6c0.3-0.3,0.5-0.6,0.8-0.8c0.3-0.3,0.6-0.6,0.9-0.8
				c0-0.2-0.5-0.2-0.1-0.5c0.3-0.2,0.4,0,0.8-0.3c0-0.3-0.7,0.2-0.2-0.3c0.1,0.1,0.2,0.1,0.4-0.1c0.7-0.9,1.4-1.1,2.1-1.7
				c0.1,0,0.1-0.2,0.3-0.3c0.1-0.1,0.3-0.1,0.4-0.2c0,0-0.1-0.4,0.4-0.5c0.3-0.2,0.3,0.1,0.6-0.2c0.7-0.4,0.1-0.5,0.7-0.8
				c0.4,0.1,1.2-0.5,1.8-0.7c-0.7,0.5-1.7,1.1-2.6,1.8c-0.9,0.7-1.8,1.4-2.5,1.9c-0.3,0.2-0.8,0.3-0.6,0.6c0.9-0.6,2.2-1.6,3.4-2.6
				c1.3-0.9,2.6-1.9,3.7-2.5c-0.2-0.4-1.1,0.4-1.3-0.1c-0.5,0.3-1,0.7-1.2,0.9c-0.2,0-0.4,0-0.4-0.3c0.7-0.4,0.9-0.8,1.5-1.2
				c-0.2,0,0.1-0.6,0.3-0.4c0.4,0.1-0.5,0.4-0.2,0.5c0.8-0.3,0.6-0.2,1.2-0.8c0.4-0.1,0.8-0.3,0.9,0c-0.3,0.2-0.6,0.4-0.4,0.5
				c0.4-0.3,0.5-0.1,0.9-0.5c-0.2-0.2,0.2-0.7,1.2-1.3c-0.5-0.1,0-0.5,0.5-0.9c0.7-0.4,0.7,0,1.5-0.4c1-0.4,0.8-0.7,1.6-1.1
				c-0.2,0.4,0.3,0.3,0.8,0.2c-0.1-0.1,0.5-0.3,0.5-0.4c-0.3,0.2-0.6,0.1-0.3-0.1c0.6,0,0.6-0.1,0.4,0.3c0.9-0.3,0.1-0.5,0.8-0.7
				c0.3-0.1,0.3,0.1,0.3,0.3c0.6-0.3,1.5-0.6,1.5-0.9c-0.3,0.2-0.5,0.1-0.5-0.1c0.2,0.1,1.1-0.5,1.2-0.3c-0.6,0.3-0.3,0.6-0.8,0.9
				c0.9-0.3,1.7-0.7,2.6-1c0.9-0.3,1.8-0.7,3.1-1.1c0.5-0.4,0.8-0.8,2-1.2c-0.1,0.2,0.4,0.4-0.1,0.5c-0.6,0.2-0.8-0.1-1,0.3
				c0.4,0,1.2-0.3,1.3,0.1c-0.7,0.1-1.5,0.4-1.9,0.3c-0.7,0.4-2.6,1.4-3.3,1.3c-0.7,0.7-1.5,0.7-2.6,1.2c0,0.1,0.1,0.2-0.1,0.3
				c-0.6,0-1.7,0.7-2.5,1.1c-0.4,0.3,0.3,0.1-0.1,0.3c-0.5,0-1.2,0.3-1.9,0.7c-0.7,0.4-1.4,0.9-1.8,1.2c0.3,0,0.5,0.2,1.1-0.2
				c0.2-0.2,0.3-0.5,0.6-0.7c0.2,0.2-0.3,0.5-0.1,0.7c0.2-0.1,0.5-0.4,0.9-0.6c0.3-0.2,0.6-0.2,0.7,0c-0.3,0.2-0.5,0.1-0.8,0.3
				c-0.1,0.2,0,0.4-0.1,0.6c0.5-0.2,1-0.9,1.4-1.3c0.2,0.1,0.9-0.4,1-0.3c0.5-0.2,0.6-0.7,1.1-0.6c-0.5,0.2-0.8,0.4-0.6,0.6
				c0.9-0.3,1.3-1,1.8-1c0,0.2-0.8,0.4-0.8,0.7c0.7,0,0.6-0.4,1.3-0.6c0.3,0.2-0.1,0.5-0.2,0.7c1.2-0.4,0.8-0.8,1.7-1.2
				c0.2,0.2-0.6,0.5,0,0.5c2.4-1.1,4.5-1.4,5.8-2.2c0.3,0,0.5,0.1,1,0c0.3-0.1,0.3-0.3,0.5-0.4c0.4,0.2,1.1-0.2,1.8-0.4
				c1.4-0.4,3.2-0.5,4.9-0.9c1.2-0.2,2.2-0.5,3.2-0.5c0-0.1-0.1-0.3,0.4-0.3c0,0.2,0.1,0.3,0.2,0.3c1.9-0.3,3.1-0.2,4-0.5
				c0,0.3,0.5,0.3,1,0.3c0.7-0.3,1.4-0.5,1.6-0.9c0.8,0.1,1.4,0.2,2.2,0.3c-0.3,0.2-1.5,0.1-1,0.2c0.2,0,0.5-0.1,1,0.1
				c0.5,0.2-0.3,0.1-0.2,0.4c0.9-0.1,1.7-0.1,2.2-0.1c-0.1,0-0.2-0.1,0-0.1c0.9,0,2,0,3.1,0c1.1,0.1,2.3,0.1,3.5,0.3
				c1.2,0.2,2.4,0.3,3.5,0.5c1.1,0.2,2.2,0.4,3.1,0.6c-0.3-0.1,0-0.1,0.4,0c-0.2-0.5,1-0.4,1-0.1c-0.5,0-1.3,0.1-0.9,0.4
				c1.2,0.4,0.2-0.3,1.1-0.1c0.5,0.2-0.3,0.2,0.1,0.4c1.1,0.2,2,0.5,2.9,0.7c0.9,0.2,1.7,0.4,2.5,0.6c0,0.1,0.2,0.2-0.1,0.3
				c1,0.4,1.6,0.3,2.3,0.7c0-0.3,0.4-0.2,0.8,0c-0.1,0.2-0.5,0.2-0.7,0.2c-1-0.3-2.3-0.9-3-0.9c0.9,0.4,2.7,0.7,3.7,1.4
				c-0.1-0.4,0.5-0.1,1,0.1c0.5,0-0.2-0.4,0.5-0.1c0.2,0.2-0.1,0.1,0.3,0.4c0.4,0.2,0.9,0.3,1.3,0.5c0.2,0.1,0.2-0.1,0.4,0
				c0.4,0.4,0.8,0.7,1.7,1l-0.1,0.2c0.6,0.3,0.6-0.2,1.2,0.2c0.1,0.3,0.6,0.6,0.9,0.9c-0.5-0.1-1.1-0.5-1.8-0.8
				c-0.7-0.3-1.6-0.9-1.9-0.6c0.5,0.2,1,0.4,1.6,0.7c0.6,0.3,1.1,0.6,1.7,0.9c0.6,0.3,1.2,0.6,1.7,0.9c0.6,0.3,1.1,0.6,1.6,0.8
				c-0.1-0.6,0.8,0.1,1.1,0.1c-0.6-0.5,0.5,0,0.1-0.6c0.5,0.4,0.5,0,1,0.3c0.6,0.7,0.6,1,0.7,1.4c0.6,0.3,1.1,0.7,1.6,1.1
				c0.5,0.4,1,0.8,1.5,1c-0.2,0-0.5-0.4-0.4-0.4c0.3,0.1,1.3,1.1,1.6,0.8c0.1,0.3,0.1,0.5,0.6,0.9c0.2,0,0.6,0.3,0.8,0.3l-0.2,0.2
				c0.5,0.5,0.6,0.1,1.1,0.5c-0.6,0.1,0.9,0.9,0.9,1c-0.2-0.2-0.2-0.3-0.2-0.4c0.7,0.8,0.2-0.1,0.6,0.2c-0.2,0.4,0.5,0.4,0.8,0.6
				c0,0.4,0.4,0.9,1.2,1.6c0.1-0.4,0.6,0.2,0.8,0.3c-0.1,0.1-0.2,0.2-0.4,0.1l1,1c0.2,0,0.2-0.5,0.5-0.3c0.4,0.2,0.2,0.2,0.6,0.5
				c0,0.3-0.7-0.1-0.1,0.4c0.8,0.8,0.2-0.2,0.6,0l0.4,0.4c-0.2,0.2-0.4-0.1-0.3,0.3l1,1c0.1-0.1,0.2-0.2,0.5,0.1
				c0.4,0.5-0.6-0.1,0.1,0.5c0,0,0.7-0.2,0.9,0.6c-0.2-0.3-0.4-0.3-0.5-0.3c1,1.1,1.3,1.5,2.3,2.7c0.4,0.3,0-0.5,0.5-0.1
				c0.4,0.6-0.2,0.2-0.1,0.6c1.1,1.4,2.2,2.6,2.7,3.6c0.1,0,0.2-0.1,0.4,0.2c0.3,0.6,0.6,1.2,1.1,1.7c0.2,0.3,0.4,0.3,0.6,0.6
				c0.2,0.3,0.4,0.9,0.7,1.2c0.1,0.2,0.4,0.2,0.5,0.4c0,0,0,0.4,0.2,0.6c0.2,0.5,0.5,0.9,0.8,1.4c0,0.1,0.1,0.1,0.1,0.1
				c0.6-0.6,1.2-1.2,1.8-1.8c-0.3-0.4-0.4-0.8-0.8-1.4c0.3,0.2,0.6,0.8,0.9,1.3c0,0,0.1-0.1,0.1-0.1c-0.3-0.5-0.6-1.1-1-1.7
				c-0.4-0.4,0,0.5-0.4,0c-0.1-0.2,0.1-0.6-0.2-0.6c0.1,0.5-0.8-0.7-1-0.8c0.2-0.3-0.6-1,0.1-0.8c-0.2-0.3-0.3-0.3-0.5-0.4
				c-0.6-1.1-1.5-1.9-2.2-3.2c-0.4-0.1,0.2,0.8-0.3,0.4c-0.2-0.4,0.1-0.6-0.4-1.2c-0.3,0.3-0.2-0.2-0.6-0.6
				c-0.1,0.3-0.4-0.1-0.7-0.3c0.1-0.3-0.3-0.9-0.5-1.4c-0.3,0.1-0.8-0.7-1.2-1.1c-0.5,0,0.5,0.7,0.3,0.8c-0.5-0.8-1-1-1.1-1.5
				c-0.5-0.4-0.9-0.5-1.4-0.9c0.2-0.1,0.6,0.5,0.7,0.2c-0.7-0.6-1.2-1.4-1.6-1.8c-0.4-0.5-1-1.1-1.5-1.1c0.5,0.7,1.3,0.9,1.7,1.7
				c-0.3-0.1-0.7-0.4-1.1-0.7c-0.6-0.5-1.1-1.3-1.6-1.5c-0.1-0.3-0.4-0.7-0.9-1.1c-0.5-0.4-1-0.8-1.4-1.2c-0.1-0.1-0.4-0.2-0.6-0.3
				c-0.3-0.2-1-1-1.1-0.6c-0.1,0.2,0.9,0.3,0.8,0.7c-0.3,0.4-0.7-0.6-1.3-0.7c0.4,0.1,0.2-0.2-0.3-0.6c-0.5-0.2,0.1,0.5-0.5,0.2
				c0.1-0.3-0.8-0.9-0.6-1.2c-0.4-0.5-0.6-0.3-0.9-0.5c0,0-0.2-0.3-0.4-0.5c-0.2-0.2-0.5-0.3-0.7-0.5c0.3-0.1,0-0.4-0.1-0.5
				c-0.1-0.1-0.1-0.3-0.3-0.2c0.2,0.1,0.2,0.3,0.2,0.4c-0.7-0.5-1.2-0.8-1.7-0.8c0.4,0.6,0.9,0.3,1.6,1c0.1,0.1,0.6,0.7,0.2,0.5
				c-0.1-0.2-0.4-0.4-0.8-0.7c-0.1,0-0.3,0-0.5,0c-1.4-0.9-2-1.4-3.6-2.3c0.2-0.3-0.2-0.7-0.2-1.2c-0.7-0.5-1.6-1.1-2.4-1.7
				c-0.9-0.5-1.7-1-2.4-1.4c-0.3,0-0.8-0.2-1.2-0.3c-0.3-0.4-2.1-1.2-2.8-1.3c0.1,0,0.2,0.2,0,0.1c-1.1-0.8-2.8-1.1-4.6-1.8
				c-0.1,0.1-0.1,0.3-0.3,0.2c-0.6-0.2-0.7-0.5-1.5-0.8c-0.4-0.1-0.9,0-1.2-0.2c0,0,0.4-0.1,0.1-0.2c0,0-0.3,0.1-0.5,0.1
				c-0.7-0.1-1.4-0.4-2.3-0.7c-0.8-0.2-1.7-0.4-2.5-0.4c0.4,0.2,1.6,0.2,1.4,0.5c-1.5-0.2-1.5-0.7-3.1-1c-0.3,0.1-1.2,0.4-1.5-0.1
				c0.3,0,0.7,0.1,0.6-0.1c-1.1-0.3-2.4-0.3-3.3-0.4c-0.4,0-1-0.3-1,0c0.4,0.1,1,0,0.8,0.3c-0.7-0.1-0.9-0.3-1.4-0.5
				c-0.2,0-1.3-0.1-0.6,0c0.2,0,0.6,0,0.6,0.1c-0.8-0.2-0.1,0.4-0.7,0.3c0-0.3-1.8-0.4-1.2-0.7c-1.3-0.4-2.9-0.1-4.3-0.3
				c-0.5,0.1,0.2,0.2-0.2,0.3c-0.4-0.1-0.7-0.3-1.4-0.2c-0.3,0-0.2,0.2-0.4,0.2c-0.8,0-1.6-0.1-2.3-0.1c-0.2,0-0.8,0.4-0.8,0.1
				c0.1-0.2,1-0.1,1-0.3c-0.6,0-1-0.1-0.8-0.4c1.3,0.1,2.7,0,4-0.3c0.8,0.1,1.6,0.2,2.5,0.3c0.9,0.1,1.8,0.1,2.9,0.1
				c0-0.3,0.7-0.1,0.5-0.5C100,9.2,98.6,9.4,98.6,9c0.9,0,2.1,0.5,3.1,0.4c0.4-0.3-0.7-0.1-0.6-0.3c0.7-0.1,0.7,0.3,0.8,0.4
				c0.3,0.1,0.6-0.1,0.6,0.1c0.1,0.4-0.8-0.1-1.1,0c-0.1,0-0.3,0.2-0.5,0.2c-0.3,0.1-1-0.1-0.7,0.2c0.7,0.2,0.7-0.1,1.1-0.1
				c0.1,0,0.6,0.2,1,0.1c0.4,0.1,0.2,0.3,0.8,0.3c1.5,0.1,3.9,0.4,5.8,0.7c1.7,0.4,3.2,0.9,4.3,0.9c-0.3,0.3,1.4,0.6,1.6,0.5
				c-0.9-0.4,0.4-0.2,0.7-0.3c0.3-0.2-0.6-0.2-0.3-0.5c0.4,0.2,0.9,0.3,1.2,0.5c0.1,0,0,0.3,0.1,0.3c0.4,0.3,1.1,0.3,1.1,0.6
				c-0.7,0-1.4-0.5-1.7-0.8c-0.2,0.1-0.9-0.1-0.7,0.3c0.6,0.1,0.5,0.3,1,0.4c0.3,0.1,0.2-0.1,0.5,0c2,0.9,3.6,1.1,6.1,2.2
				c0.2,0.1,0.2-0.1,0.5,0c0.5,0.5,0.7,0.4,1.5,0.8c0.7,0.3,1.5,0.7,2.2,1c0.7,0.3,1.2,0.6,1.5,0.5c0.4,0.4,1,0.4,1.7,0.9
				c0.1-0.4,0.4,0.2,0.7,0c0,0-0.3-0.5,0.1-0.2c0.5,0.4,0.8,0.3,1,0.8c-0.2,0.4-0.8-0.7-1.1-0.3c1,0.6,1.2,0.8,2.2,1.3
				c-0.1,0.1-0.4,0,0.1,0.3c0.7,0.2-0.2-0.4,0.1-0.5c0.6,0.3,0.4-0.3,0.6-0.2c0.3,0.4,0.1,0.4-0.1,0.5c0.5,0.3,0.9,0.5,0.8,0.7
				c-0.5-0.3-0.9-0.6-0.9-0.2c0.4,0.3,0.7,0.3,1.2,0.5c0.5,0.3,0.9,0.9,1.3,0.7c-0.4-0.4-1.6-0.8-1.1-1c0.7,0.5,1.5,1.1,2.5,1.6
				c-0.7,0,0.7,0.4,0.9,0.9c0.5,0.2,0.1-0.5,0.5-0.2c0.9,0.5,0.2,0.6,1,1.1c0.6,0.4-0.2-0.6,0.5,0c0.3,0.4-0.5,0.1,0,0.6
				c-0.2-0.1-0.4-0.3-0.5-0.1c0.6,0.4,1.5,1.3,1.9,1.4c-0.2-0.6-1.4-0.9-1.2-1.2c0.8,0.7,1.4,1,1.7,0.9c1,1.1,1.8,1.5,2.9,2.7
				c-0.1,0.1-0.2,0-0.3,0c0.8,0.6,0.9,1,1.6,1.7c-0.1,0.1-0.4-0.1-0.5-0.1l0.9,0.9c0-0.4,0.3-0.4,0.9,0.3l-0.3,0.3
				c0.3,0.3,0.8,0.9,1.3,1.4c0.4,0.4,1,1.2,1.1,1c-0.4-0.6-1.4-1.3-1.5-1.7c0.8,0.8,0.4,0,0.1-0.4c0.6,0.1,0.5,0.3,0.9,0.9
				c0.2,0.3,0.4,0.2,0.6,0.6l-0.2,0.2c0.3,0.5,0.6,0.9,0.9,1.4c0.5,0.4-0.2-0.6,0.3-0.2c0.7,0.9,0.9,1.4,1,1.9c0,0.1-0.3-0.1-0.3,0
				c0,0.1,0.5,0.5,0.5,0.7c0.3-0.2-0.2-0.7-0.1-1c0.4,0.5,0.5,0.2,0.9,0.9c-0.2,0.1-0.5-0.5-0.6-0.3c0.1,0.5,0.5,0.4,0.8,0.9
				c-0.1,0.1-0.3-0.1-0.4,0c0.4,0.3,0.6,0.8,0.9,1.2c0.3,0.4,0.9,0.8,1.2,1.2c0.3,0.5,0.3,1,0.8,1.3c-0.1-0.2-0.2-0.5,0-0.3
				c0.6,0.7,0.1,0.7,0.6,1.4c0.5,0.1-0.3-1.1,0.3-0.7c0.3,0.4-0.1,0.4-0.1,0.5c0,0.1,0.4,0.6,0,0.5c0.6,1,1,1.1,1.6,2l-0.2,0.1
				c0.6,0.9,0.7,1.1,0.9,1.7c1.6-1.4,3.3-2.8,5.1-3.8c-0.4-0.7-0.9-1.4-1.3-1.8c-0.2-0.6-0.6-1.3-1.1-2c-0.5-0.7-1-1.4-1.6-2.3
				c-0.7-0.4-1.6-1.6-2.1-2.7c-0.2-0.3-0.5-0.4-0.8-0.8c0,0-0.2-0.4-0.3-0.6c-0.4-0.4-1.2-1.2-0.7-1.1c0.4,0.3,0.7,0.7,0.9,1
				c0.3,0.4,0.5,0.8,0.9,1c-0.2-0.4-0.5-0.8-0.7-1.2c-0.3-0.4-0.6-0.8-0.9-1.2c-0.7-0.8-1.4-1.7-2.3-2.6c-0.3-0.3-0.3,0-0.6-0.4
				c0-0.5-0.7-0.9-1-1.2c-1.7-1.8-3.9-4.1-5.3-5c-0.3-0.2-0.7-0.6-0.9-0.7c-0.3-0.2-0.8-0.1-1.2-0.7c-0.3-0.1-0.3,0.3-0.6,0
				c-0.7-0.4-0.9-0.8-1.3-0.9c0.2,0.2,0.4,0.3,0.2,0.4c-0.6-0.5-0.9-0.9-1.3-1.3c-1-0.4-1.5-0.8-2.2-1.6c-0.1,0.1-0.2,0.1-0.5-0.1
				c-0.3-0.2,0-0.3-0.4-0.5c-0.1,0.4-0.7-0.4-0.8-0.4c0,0-0.6-0.2-0.7-0.2c-0.4-0.2-0.5-0.5-0.8-0.5c-0.3,0,0.4,0.6-0.2,0.3
				c-0.2-0.1-0.3-0.1-0.4-0.2c-0.3-0.5,0.8,0,0.1-0.6c0.4,0.3,0.7,0.4,0.9,0.3c-0.4-0.2-0.9-0.7-1.3-0.8c-0.2-0.1,0,0.2-0.3,0
				c-0.4-0.2-0.6-0.5-0.7-0.5c-0.3-0.2-0.7-0.3-1-0.5c-0.8-0.5-1.7-1.2-2.6-1.5c0.2,0.1,0.5,0.4,0.5,0.3c-0.6-0.1-1-0.6-1.8-1
				c-0.2-0.1-0.3,0-0.4-0.1c-0.3-0.1-0.2-0.3-0.6-0.4c-0.3-0.1-0.7,0-1-0.1c0,0-0.3-0.3-0.5-0.4c-0.3-0.2-0.7-0.3-1-0.5
				c-0.1-0.1-1-0.5-1-0.5c-0.3-0.2-0.2-0.6-0.6-0.3c0.1,0,0.2,0.2,0,0.1c-0.5-0.4-1.4-0.3-1.9-0.8c0.3,0.1,0.7,0.3,0.7,0.1
				c-0.6-0.1-1.5-0.5-1.8-0.4c-1-0.5-2.2-0.9-2.6-0.7c0.1-0.2-0.1-0.3-0.6-0.5c-1.2-0.2-3.1-0.8-4.6-1.2c0.1-0.2-0.2-0.3-0.6-0.3
				c-0.9,0.2,0.9,0.6,0.3,0.6c-0.8-0.2-0.7-0.5-1.2-0.7c-1.2-0.2-2.3-0.3-3.1-0.7c0.1,0.4-0.8,0.1-1.2,0.2c-0.4-0.3-1.9-0.6-2.4-0.5
				c0.1,0,0.3,0.1,0,0.1c-0.5-0.1-1.3-0.6-2-0.4C103.7,3.6,104,3.8,103.7,3.8z M77.6,4.8l0.1,0.6c-0.7,0.2-0.9-0.1-1-0.4L77.6,4.8z
				 M76.4,5.8c1.1-0.3,1.1,0,1.4,0.3l-0.7,0.1C77.4,5.7,76.1,6.3,76.4,5.8z M93,4.5c-0.1-0.1-0.7-0.1-0.4-0.4
				c1.2-0.2,0.7,0.3,1.3,0.3C94.1,4.7,92.9,4.7,93,4.5z M21.9,60.3c0.1-0.2,0.2-0.4,0.4-0.8c0.2,0,0.2,0.2,0.3,0.3
				C22.4,60.5,22.1,60.5,21.9,60.3z M22.2,62c-0.1-0.2,0.2-0.9-0.2-0.8c0.4-1.1,0.3-0.1,0.6,0C22.5,61.6,22.3,61.6,22.2,62z
				 M21.3,67.3c-0.1,0.4,0.3,0.3,0.1,0.9c-0.4,0-0.2-0.9-0.2-1.4l0.6,0.2C21.7,67.4,21.5,67.4,21.3,67.3z M25.3,51.5
				c0.2,0,0,0.5,0.1,0.5c0.2,0.1,0.4-0.5,0.5-0.2c-0.4,1-0.7,0.6-1,1.1c0-0.4,0.5-0.7-0.1-0.8C25.1,51.5,25.2,51.5,25.3,51.5z
				 M26,53.8c0.2-0.2,0,0.8-0.3,1.3c0-0.5-0.1-0.5-0.5,0.2c-0.1-0.2,0-0.5,0.2-0.9C25.6,54.3,25.8,54.4,26,53.8z M25,53.3
				c-0.1,0.2,0,0.2,0,0.2c-0.2,0.5-0.4,0.6-0.6,0.4C24.6,53.4,24.8,53.1,25,53.3z M24.1,56.4c0.2,0.1,0.1,0.5,0.4,0.4l-0.2,0.6
				C24.2,57.1,23.8,57.1,24.1,56.4z M23.2,56.2c-0.1,0.9,0.1,0.7,0.2,1.3C22.9,58.3,22.9,56.9,23.2,56.2z M23.3,61.7
				c-0.1-0.1,0-0.4-0.1-0.5c0.1-0.3,0.3-0.4,0.5-0.3C23.6,61.4,23.4,61.5,23.3,61.7z M24.2,59.2c-0.3-0.2-0.6,0.1-0.8,0.6
				c-0.1,0.4,0.3,0.1,0.5,0c0.1-0.1,0.2-0.5,0.3-0.3c-0.4,0.9-0.8,1.2-1.2,1.1c0-0.3-0.1-0.5,0-0.9c0.2-0.8,0.5-0.6,0.8-1.1
				c0.1,0.1-0.1,0.4,0,0.5c0.1,0,0.3-0.3,0.4-0.3c0.4-0.9,0.4-1.6,0.8-2.2C24.9,57.3,24.6,58.2,24.2,59.2z M26.6,54.1
				c-0.2,0.6-1,2.5-1.5,2.1c0.3-0.7,0.5-1.1,0.7-0.6C26.1,55.1,26.3,53.8,26.6,54.1z M27.8,49.7c-0.4,1-0.6,1.8-1.1,2.8
				c-0.1-0.5-0.4-0.1-0.8,0.8l-0.3-0.2c0.4-0.8,0.9-1.3,1.4-1.9c0.1-0.4,0-0.6,0.4-1.2c-0.8,0.3,0.7-1.1,0.1-1.2
				C28.4,47.8,27.3,49.7,27.8,49.7z M27,47.8c-0.1,0.3-0.1,0.9,0.1,0.6c-0.2,0.3-0.5,1.1,0.1,0.8c-0.5,0.9-0.1,1.1-0.3,1.7
				c-0.3,0.5,0-0.4,0-0.5c-0.2-0.1-0.5,0.5-0.7,0.3c0.2-0.3,0.3-0.3,0.5-0.7c0.2-0.7-0.4-0.1,0-1.2c-0.3,0.2-0.9,0.8-0.9,1.4
				c0.3-0.2,0.2-0.5,0.6-0.9c0,0.3-0.4,1-0.5,1.4c-0.2,0.1-0.3,0.1-0.5,0c0.5-1.1,1-2,1.5-2.6c0.2-0.7,0.4-1.3,0.7-2.1
				c0.5,0-0.1,0.8-0.4,1.3c0.2,0.1,0.5-0.5,0.8-1l0.4,0.2C27.9,46.6,27.4,48.1,27,47.8z M26.6,58.1c-0.1-0.2,0-0.7,0.3-1.2l0.3,0.1
				C26.8,57.6,26.7,57.4,26.6,58.1z M28.3,53.5c0.1-0.9,0.9-1.4,1.3-2.3c0.1,0.5-0.2,0.6-0.6,1.3C29,52.9,28.6,53.9,28.3,53.5z
				 M29,54.8c-0.4,0,0.3-1.2,0.5-1.3C29.8,53.5,29.3,54.7,29,54.8z M34.8,37.4c-0.4,0.7-0.5,0.1-0.9,0.9
				C33.5,38.7,34.8,37,34.8,37.4z M29.7,43.1c0.1,0.1-0.1,0.6-0.4,1c-0.1-0.1-0.2-0.1-0.3,0.1C28.9,43.9,29.5,43.5,29.7,43.1z
				 M29.3,45.2c0.2-0.3-0.4,0.1,0.1-0.7c0.2,0,0,0.4,0.3,0.4c-0.3,0.2-0.4,0.8-0.9,1.5C28.6,46.2,28.9,45.7,29.3,45.2z M29.5,46.1
				c-0.3-0.1,0.5-1.4,0.6-0.8C29.9,45.7,29.7,45.5,29.5,46.1z M32.2,48.5c-0.1,0.7-0.9,1.3-1.3,2.3C30.8,50,31.7,49.3,32.2,48.5z
				 M30.9,48.7c-0.2,0.6-0.5,1.9-1.1,2C30.4,50.2,30.3,49.1,30.9,48.7z M31.3,41.4c-0.3,0.6-0.3,0-0.6,0.6c-0.1,0.3,0.1,0.1,0.3-0.1
				c0.1,0.3-0.4,0.4-0.5,0.7c0.1,0.2-0.7,1.6-0.3,0.6c0.1-0.2,0-0.3-0.1-0.3c0.5-0.9,0.6-1.5,0.9-2.2c0.3-0.5,0.5-0.4,0.9-0.9
				c0.2,0.4-0.4,0.5-0.7,1.1c0.1,0.4,0.5-0.5,0.5-0.1C31.1,41.1,31.4,41.1,31.3,41.4z M31.8,42.3c-0.2-0.2-0.4,0.2-0.3-0.2
				c0.3-0.4,0.5-0.4,0.8-1c-0.1-0.4-0.5,0.5-0.5,0.1c0.3-0.4,0.6-0.9,0.8-1c0.1,0.1-0.5,1.1,0.1,0.3C32.8,41,32.1,41.8,31.8,42.3z
				 M32.6,39.2L32,40.1c-0.5,0.5,0.2-0.5,0.4-0.8c0.3-0.4,0.7-0.7,1.1-1.3c0.3,0-0.2,0.5-0.4,0.8c0.1,0.2,0.3,0.2,0.6-0.1
				C33.6,39.4,32.9,39.2,32.6,39.2z M33.2,40.5c0-0.2,0.2-0.5,0.4-0.7c0.2-0.2,0.5-0.4,0.6-0.4C34.6,39,33.4,40.3,33.2,40.5z
				 M34,40.8l-0.3-0.2c0.2-0.4,0.3-0.1,0.5-0.4c0.5-0.5-0.1-0.3,0.4-0.8c-0.1,0.5,0.3-0.1,0.5,0.1C34.6,40,34.3,40.1,34,40.8z
				 M36,37.3c-0.1,0.5-1.1,1.4-1.2,1.2C35.2,37.8,35.6,37.7,36,37.3z M35.8,34.8c-0.2-0.3-0.8,1-1,0.6c0.6-0.6,1.3-1.6,1.8-1.9
				c0,0.4-0.4,0.8-0.7,0.8c-0.3,0.3,0.2,0.3,0.2,0.5C35.8,35.2,35.6,35.1,35.8,34.8z M37.2,34.1c0.1,0.4-0.7,0.7-1,0.8
				C36.2,34.5,36.8,34.5,37.2,34.1z M36,36.8c-0.1-0.4,0.9-1.1,1.2-1.4C37.5,35.6,36.4,36.4,36,36.8z M37,33.3
				c-0.2-0.1-0.1-0.3-0.1-0.4c0.3-0.2,0.6-0.4,0.7-0.2C37.3,32.9,37.1,33.1,37,33.3z M42.6,27.3c0.3-0.2,0.6-0.4,0.5-0.2
				c-0.5,0.5-0.6,0.4-1,0.8C42.1,27.8,42.4,27.5,42.6,27.3z M42.9,28.7l-0.1-0.1c-0.1-0.1-0.4,0.2-0.3,0.3c-0.3,0.3-0.2-0.3,0.1-0.5
				c0.1,0.3,0.6-0.3,0.7,0.1c0.3-0.6,0.1-0.3,0.8-0.6c0.3-0.1,0.6-0.6,0.6-0.3C44,28.1,43.6,28.7,42.9,28.7c-0.3,0.4-0.6,1-1,1.1
				C41.8,29.6,42.6,29.1,42.9,28.7z M38.4,34.9c0-0.3-0.4-0.4,0.2-1c0.1,0.1-0.1,0.2-0.2,0.4c0.1,0.1,0.5-0.3,0.5-0.1L38.4,34.9z
				 M39.4,31.2c-0.2,0.3-0.2,0.4-0.5,0.7C38.6,31.7,40.8,29.6,39.4,31.2z M39.1,33.9c0.1-0.4,0.1-1,0.7-1.3
				c-0.1,0.3-0.5,0.7-0.3,0.9c0.5-0.6,0.5-0.9,1.3-1.7c0.2,0.1-0.1,0.4,0.2,0.5C40.3,32.5,39.9,33.2,39.1,33.9z M40,31.2
				c-0.3-0.2,0.7-0.8,0.1-0.9c-0.2,0.2-0.8,0.7-1.4,1.3c-0.2-0.6,1.6-2,1.8-1.5c0.3-0.3,0.2-0.4,0.6-0.7c-0.1-0.5-0.9,0.8-1,0.2
				c0.5-0.3,1-0.8,1.6-1.4c0.6-0.4-0.6,0.6-0.5,0.7l0.3,0.3C40.6,30.1,40.6,30.5,40,31.2z M44.6,28.8c-0.6,0.6-0.7,0.4-1.2,0.9
				c-0.3,0.2-0.2,0.3-0.2,0.4c-0.7,0.5-0.9,0.5-1.4,1.2c-0.4-0.2-0.2-0.6-0.5-0.8c0.5-0.3,0.6,0.1,1.3-0.7c0.2-0.2,0-0.2-0.1-0.1
				c0-0.1,0.3-0.4,0.5-0.7c0.4-0.1,0,0.2,0.3,0.4c0.3-0.2,0.3-0.5,0.5-0.4c0.3-0.4-0.3,0.1,0-0.4c0.3-0.3,0.4,0,0.8-0.4
				C45,28.3,44.6,28.6,44.6,28.8z M44.5,26.3c0.2,0,0.6-0.3,0.9-0.6c0.1,0.2-1.2,0.9-0.6,1c-0.5,0.4-0.2,0-0.3,0
				c0,0-0.4,0.2-0.4,0.2c0,0,0.2-0.4,0.2-0.4c-0.1-0.1-0.5,0.3-0.5,0.1c0.8-0.7,0.6-1,1.6-1.8c0.2,0.1,0.2,0.3,0.1,0.5L44.5,26.3z
				 M45.7,26.4c0.3-0.2,0.6-0.5,0.9-0.8c0.3-0.2,0.6-0.4,0.8-0.5C47,25.7,46.1,26.7,45.7,26.4z M47.7,24.4c0.1-0.1,0.1-0.1,0-0.2
				c-0.2-0.1-0.9,0.9-1,0.4l0.8-0.7c0-0.5-0.8,0.6-0.7,0.1c0.5-0.5,0.3-0.3,0.8-0.7c0,0.1-0.1,0.2-0.1,0.3c0.6-0.3,1.7-1.4,2.1-1.1
				c-0.4,0.3-0.8,0.6-1.1,0.7c-0.2,0.2,0.3,0.2-0.5,0.8c0.1,0.2,0.7-0.5,1.1-0.7c0.1,0.2-0.4,0.6-0.6,0.7c-0.4,0.3-0.4,0.1-0.6,0.2
				C47.8,24.3,47.7,24.3,47.7,24.4C47.6,24.5,47.5,24.5,47.7,24.4z M48.2,24.9c-0.1-0.1-0.1-0.4-0.4-0.2c0.5-0.5,1.4-0.9,2.1-1.5
				c0.3-0.2-0.4-0.1,0.6-0.6l0.2,0.3C49.5,23.8,48.9,24.1,48.2,24.9z M54.5,20.2c0.1-0.2,0.1-0.4,0.6-0.7c0.1,0,0.3,0,0.3,0.1
				C55.2,19.9,54.8,20.2,54.5,20.2z M55.9,18.5c-0.1-0.2,0.8-0.5,1.1-0.7C57.1,18,56.2,18.5,55.9,18.5z M60.9,15
				c0.3,0.3-0.8,0.8-0.8,0.4C60.6,15.1,60.4,15.1,60.9,15z M59.5,16.6c0.4-0.5,1.5-0.7,1.9-0.9C61.2,16.1,60,16.4,59.5,16.6z
				 M64.8,15.7l-0.1-0.3c0.6-0.4,0.5-0.1,0.8-0.2C65.5,15.4,65.1,15.5,64.8,15.7z M66.3,14.8c0,0.1,0.1,0.1,0.2,0
				c0,0.2-0.6,0.3-0.8,0.3c-0.3-0.4,0.5-0.8,1.2-0.9C66.9,14.5,66.9,14.7,66.3,14.8z M67.1,14.7c0.1-0.4,1.1-0.5,1.5-0.7
				c0.4-0.2,1.1-0.9,1.2-0.4C69.3,14,68,14.3,67.1,14.7z M70,12.6c-0.1-0.2,0.9-0.5,1.2-0.5C71.2,12.3,70.3,12.4,70,12.6z M59.7,19
				c0.7-0.5,0.9-0.3,1.6-0.6C60.8,18.9,59.9,19.4,59.7,19z M62.2,18.4c0.4-0.4,0.6-0.6-0.2-0.3c0.2-0.4,0.8-0.1,1.3-0.6
				C63.3,17.8,62.7,18.1,62.2,18.4z M72.4,14.3c-0.2,0.1-0.4,0.2-0.8,0.3c0-0.1,0-0.3-0.3-0.2C71.5,14.1,72.5,14,72.4,14.3z
				 M65,17.1c0.7-0.3,0.7,0.1,1,0.2C65.5,17.4,65,17.5,65,17.1z M65.5,16.4c1.3-0.5-0.3,0.6,0.8,0.3C65.9,17,65.4,16.8,65.5,16.4z
				 M71.1,15.6c-0.4-0.3,1-0.3,0.9-0.6c-0.4-0.1-1.4,0.4-1.7,0.6c-0.4,0.1-1.2-0.2-1.6,0.3c0.8-0.2,1.1,0,2-0.4
				c0,0.3-0.7,0.4-1.1,0.5c-0.6,0.2-1.1,0.5-1.7,0.6c-0.2,0,0.4-0.3,0.3-0.2c0-0.1-0.6,0.1-0.8,0.2c-0.5,0.3,0.5,0,0.3,0.3
				c-0.3,0.1-0.5,0.2-0.8,0.3c0.1-0.3,0.2-0.7,0.3-1c-0.3-0.2-0.3,0-0.8,0.2c-0.4-0.2,0.5-0.4,0.2-0.6c0.4-0.1,0.5,0,0.3,0.2
				c0.2,0.1,0.7-0.1,1.1-0.1c0,0.1-0.3,0.2-0.5,0.3c0.3,0.2,0.6-0.3,1-0.4c0.2-0.2-0.4-0.1-0.4,0c0.1-0.3,1.4-0.8,1.7-1.3
				c0.4,0-0.6,0.7-1.2,0.9c0.5-0.1,0.8,0.1,1.3-0.1c0.9-0.3,2-0.8,2.9-1c0.2,0.2-0.3,0.2-0.3,0.4c0,0.1,0.7,0.1,0.6-0.1
				c0.3-0.1,0.2,0.2,0.3,0.3C72.3,15.3,72,15.2,71.1,15.6z M74.4,12.5l-1.1,0.3l-1,0.3c0.1-0.3,0.1-0.2-0.1-0.4
				c0.6-0.1,0.7-0.4,1.4-0.5c0.1,0.1,0.7-0.1,0.5,0.3c0.5-0.1,1.2-0.3,1.4-0.5c-0.1-0.1-0.2-0.1-0.4-0.1c0.6-0.5,1.4-0.2,1.5,0.1
				L74.4,12.5z M78.9,11.1c-0.3,0.3-1,0.5-1.8,0.7c0.4-0.3-0.3-0.5-1.1-0.2c0-0.2,0.4-0.3,0.8-0.3c0.5,0,1-0.1,1.4-0.3l0.1,0.3
				c0.6-0.1,1.3-0.7,1.6-0.4c0.3-0.1,0.1-0.3,0.1-0.4c0.1,0,0.3-0.1,0.4-0.1c0,0.1,0.3,0,0.4,0c0,0.2-0.7,0.2-0.6,0.4
				c0.5-0.2,1.1-0.3,1.8-0.4C81.9,11.1,79.9,10.8,78.9,11.1z M85.7,12.8c0.2-0.3,0.4-0.1,1-0.3l0,0.3C86.1,12.8,86.2,12.9,85.7,12.8
				z M86.6,10.7c0.5-0.1,1-0.1,1.2,0C87.8,10.8,86.3,11,86.6,10.7z M85.5,10.2c-0.8,0.1-1.2-0.1-1.9-0.1c0.8,0.1-0.1,0.2-0.8,0.3
				c0-0.3,0.2-0.5,0.6-0.7c0.8-0.1,1.2,0.1,1.7,0.3c0.6-0.2-0.3-0.2,0.2-0.4c0.7-0.1,1.3-0.3,2.3-0.3c0.6,0.1-0.9,0.6,0.4,0.4
				C87.3,10.1,85.9,9.8,85.5,10.2z M89.2,9.7c-0.6,0.1-0.5-0.2-1.1-0.2c0.1-0.1,0.2-0.2,0-0.2C88.6,9,89.6,9.6,89.2,9.7z
				 M150.5,40.2c-0.3-0.4-0.2-0.6-0.7-1C150.1,39.1,150.7,40.1,150.5,40.2z M149,38.1c-0.5-0.2-0.6-0.9-1.1-1.1
				C148.1,36.7,148.9,37.9,149,38.1z M133.6,23.8c0.2,0.1,0.4,0.3,0.7,0.4c-0.2,0-0.4,0.2-0.6,0.1C133.3,24.1,133.4,24,133.6,23.8z
				 M127.8,18.5c-0.6,0,0.2,0.3,0,0.5c-1-0.3-0.4-0.6-1.1-0.9C126.8,18.1,127.3,18.2,127.8,18.5z M123.5,18.5c0,0.3-0.4,0-0.5,0.2
				c0.1,0.2,0.5,0.4,0.3,0.7c-0.3-0.2,0-0.3-0.6-0.5C122.9,18.5,122.4,18,123.5,18.5z M113.3,15c-0.2,0.1-0.7,0-1.2-0.1
				C112.2,14.5,112.5,14.9,113.3,15z M108.4,12.1l-1-0.2C107.3,11.6,108.7,11.8,108.4,12.1z M106.7,13.1c-0.1,0.2-0.7,0.1-1.2,0
				C105.4,12.7,106.3,13.1,106.7,13.1z M103.6,12.1c0.4,0.2-0.6,0.4-1.3,0.2C102.1,11.8,103.5,12.2,103.6,12.1z M99.3,11
				c-0.8,0-1.3-0.2-1.4-0.5C98.6,10.6,99.7,10.6,99.3,11z M95.3,12.4c0.3,0.1,0.7,0,0.6,0.2c-0.7-0.3-1.4-0.1-2-0.3
				C94.1,12,94.9,12.3,95.3,12.4z M90.7,9.7c0.2-0.1,0.5-0.6,0-0.6c0.4-0.3,1.3,0,1.9,0C92.1,9.4,91.6,9.6,90.7,9.7z M91.9,9.7
				c0.3-0.1,0.4-0.4,1.3-0.3c0.2-0.3-0.6-0.2-0.4-0.5c0.5-0.1,0.8,0,0.6,0.3c0.4,0,0.6-0.1,0.8-0.1c0.5,0.1,1.8-0.1,1.7,0.2
				C94.8,9.1,93.2,9.6,91.9,9.7z M105.7,10.1c0.6,0.2,0.4,0.1,1,0.2c-0.1,0.1,0,0.2,0.2,0.2C107,10.5,105.4,10.3,105.7,10.1z
				 M110.7,11.3c-0.4-0.1-0.5-0.2-0.8-0.3c0.1-0.1,0.4-0.1,0.9,0L110.7,11.3z M111.4,11.3c-0.3-0.1,0-0.2,0-0.2
				c-0.1-0.2-0.6-0.2-0.3-0.5c0.9,0.2,0.9,0.5,1.1,0.8L111.4,11.3z M125.4,15.9c-0.6-0.2-0.5-0.4-1.1-0.7c0.2-0.1,0.7,0.1,1.2,0.3
				L125.4,15.9z M155,29.5c-0.2-0.1-0.3-0.1-0.1,0.1c-0.6-0.3-0.6-0.6-1.3-1.3C154.2,28.2,154.3,29,155,29.5z M152.9,27.4
				c0.5,0.5,0.2,0.7,0.5,1.1c-0.1,0-0.4-0.3-0.3-0.3C153.1,28,152.5,27.5,152.9,27.4z M152.1,26.6c-0.2,0.2-1-0.5-1.1-0.8
				C151.5,25.7,151.6,26.2,152.1,26.6z M148.1,22.9c-0.5,0-0.5-0.2-1.2-0.7C147.2,22.1,147.9,22.4,148.1,22.9z M146.9,26
				c-0.3-0.1-0.9-0.5-1.3-0.8C146.1,25.3,146.4,25.3,146.9,26z M134,15.6c0.2,0.2,0.2,0.4,0.2,0.5c-0.3,0-0.7-0.3-1.2-0.6
				C133.3,15.6,134,16.1,134,15.6z M133.5,15.6c-0.4,0-1.1-0.9-0.9-0.3c-0.3,0.1-0.6-0.4-0.7-0.5C132.2,14.7,133.7,15,133.5,15.6z
				 M125.6,10c-0.1,0.2-1.2-0.3-1.5-0.5C124.7,9.4,125,10,125.6,10z M115.6,6.2c0.4,0.1,0.7,0.2,0.7,0c0.4,0.2,0.7,0.4,0.5,0.6
				c-0.4-0.1-0.6-0.1-0.7,0C115.7,6.6,115.4,6.4,115.6,6.2z M114.8,6.6c-0.2-0.2-0.4-0.5-0.5-0.7C115.3,6,114.8,6.3,114.8,6.6z
				 M115.7,7.9c0.4,0.1,0.3-0.1,0.7,0.1c-0.3,0.3-1.8-0.3-2.7-0.3C113.8,7.2,115.1,7.8,115.7,7.9z M106.5,5.8
				c-0.5-0.1-0.4-0.3-1.1-0.3c0.1-0.2,0.7-0.2,1.2-0.2L106.5,5.8z M108.5,4.7c0.3-0.2,0.6,0.3,0.4,0.4c-0.3,0-0.6,0-1.1-0.1
				C108,5,109,4.9,108.5,4.7z M106.1,4.3c0.1,0.4-1.2,0-1.8,0C104.2,3.8,105.5,4.3,106.1,4.3z M107.6,4.7c0,0.2-0.7,0-0.7,0.2
				c-0.8-0.3-2.6-0.1-2.6-0.6C105.8,4.7,106.1,4.5,107.6,4.7z"/>
			<path class="st9" d="M87.9,4c1,0,0.3-0.4,0.7-0.4l1.6-0.1c0-0.1,0-0.2,0.2-0.2c0.3,0.4-0.7,0.3-0.9,0.5c0.7-0.1,1.6,0.2,1.8-0.2
				c-0.9,0-0.2-0.2,0-0.3c-0.5-0.3-1.5,0-1.4-0.4c-0.9,0.1-1.4,0.3-0.4,0.4C88.1,3.5,87.9,3,87,3.4C88.8,3.3,87.4,3.8,87.9,4z"/>
			<path class="st9" d="M101.8,5.8c-0.8-0.1-1.9-0.2-2.4-0.2c-1.2-0.1-2.3-0.2-3.1,0c1.6,0,4.2,0.3,5.7,0.3
				C102.9,6,102.5,5.9,101.8,5.8z"/>
			<path class="st9" d="M91.5,3.4c0.1,0,0.4,0,0.4,0.1c0.5,0.2,0.8,0,1.1,0c0.1,0,0.1,0.1,0.4,0.1c0.4,0,0.6-0.2,0.9-0.2
				c0,0,0,0.2,0,0.2c0.3,0.1,1.1-0.1,1.3,0c0.1,0,0.7-0.4,0.9-0.1c-0.1,0.2-1,0-0.9,0.3c0.6,0.2,1.7-0.2,1.8-0.5
				C98,3.5,99.5,4,100,3.6C99.5,3.5,98.6,3.4,99,3c-0.8,0-1.3,0.2-2.5,0.1c0-0.1,0.2-0.1,0.2-0.2C95.9,2.8,96,3.1,95.3,3
				c-1.5-0.2-3.2-0.2-4.5,0C92,2.9,91.2,3.3,91.5,3.4z M93.5,3c0,0.7-0.8,0.1-1.8,0.2C91.8,3,92.8,3.1,93.5,3z"/>
			<path class="st9" d="M71.5,6.8c0.6-0.3,1.2-0.2,1.5-0.3c0.1-0.1-0.1-0.2,0.2-0.2c0.2,0,0.5,0.3,0.7-0.1c-0.8,0.1-0.1-0.1-0.3-0.4
				c0.4-0.1,1.1-0.2,0.8-0.4c-0.7,0.1-1.1,0.6-1.3,0.6c-0.3,0.1-0.3-0.1-0.7,0.1c0,0,0,0.2-0.2,0.2c-0.4,0.2-0.9,0.1-1.1,0.4
				C71.4,6.7,71.5,6.7,71.5,6.8z"/>
			<path class="st9" d="M40.5,26.6c-2,2.1-3.6,3.1-4.8,4.9c0.7-0.7,1.7-1.8,2.6-2.7C39,28.2,40.9,26.4,40.5,26.6z"/>
			<path class="st9" d="M31.3,36.8c-0.4-0.1-0.8,0.8-1.2,1.3c-0.5,0.7-1.7,1.9-1.5,2.5c0.3-0.5,0.7-1.2,1.2-1.8
				C30.3,38,30.8,37.3,31.3,36.8z"/>
			<path class="st9" d="M29.8,48.2c-0.1-0.1-0.1-0.2-0.1-0.3c-0.4,0.4-0.3,1.4-1,1.6c-0.3,0.6,0,0.7-0.5,1.4c0.4,0.3,0.7-1,0.8-1.4
				C29.2,49.5,29.5,48.6,29.8,48.2z"/>
			<path class="st9" d="M55.1,14.1c-0.7,0.2,0.6-0.5,0.4-0.7c-0.3,0.2-0.8,0-0.8,0.4c0.1-0.1,0.3-0.1,0,0.1
				c-0.8,0.3-1.2,0.8-1.9,0.8c-0.1,0.4,0.2,0.2,0,0.4c-0.2,0.1-0.8,0.6-1,0.6c0,0-0.1-0.2-0.1-0.2c-0.5,0.3-1.1,0.7-1.8,1
				c-0.1,0.5,0.9-0.5,0.8,0c1-0.7,1.8-1,3.1-1.9c-0.3-0.1,0.3-0.4,0.5-0.6C54,14.5,54.8,14.5,55.1,14.1z"/>
			<path class="st9" d="M47.5,21.1c0.8-0.6,1.6-1.1,2.8-1.9c0.2-0.2,0.4-0.3,0.3-0.4c-0.7,0.5-1.6,1.1-2.5,1.7
				c-0.9,0.6-1.7,1.3-2.3,1.8c-0.4,0.3-1.6,1.2-1,0.9C46,22.3,46.8,21.7,47.5,21.1z"/>
			<path class="st9" d="M175.4,74.5c-0.1-0.8-0.1-1.3-0.1-1.8c-0.1,0-0.2,0-0.2-0.2c0.1-0.8-0.3-1.5-0.4-2.2
				c-0.1-0.5-0.1-1.1-0.2-1.6c-0.1-0.5-0.3-0.9-0.4-1.3c-0.2-0.7-0.2-1.4-0.4-2.2c-0.3-1.4-0.9-2.8-1.2-4c-0.6,0.7-1.2,1.5-1.8,2.2
				c-1,1.4-1.9,2.8-2.8,4.2c0.1,0.3,0.3,0.7,0.1,1c-0.2-0.2-0.2-0.6-0.2-0.9c-0.1,0.1-0.1,0.2-0.2,0.3c0.1,0.3,0.2,0.7,0.2,1
				c0.2,0,0.5-0.2,0.6,0.3c0,0.5,0,1,0,1.5c-0.2,0.1-0.2-0.8-0.4-0.8c0.1,0.9,0.3,1.9,0.6,2.2c-0.1,0.1-0.1,0.3-0.1,0.6
				c0.5-0.4,0.4,1.1,0.7,1.2c0-0.5,0-1.8,0.4-1.1c-0.2,0.8-0.4,1.8-0.6,2.6c-0.4-0.5,0.3-1.3-0.3-1.6c0.1,0.8,0.1,1.1,0,1.5
				c0.2,0.1,0.2,0.7,0.2,1.3c0,0.6,0,1.2,0.2,1.6c0.3,0.4,0.1-0.9,0.3-0.2c0,0.6-0.1,1.1-0.2,1.5c0.1,0.4,0.2,0.6,0.2,1
				c0.2,0.9-0.1,0.3-0.1,1c-0.1,0.8,0.3,0.7,0.2,1.7c-0.2-0.5-0.2,0.3-0.5,0.4c-0.1,0.5,0.4,0.9,0.1,1.3c-0.3-0.6,0-1.6-0.2-2.1
				c0,0.2-0.2,0.9-0.3,0.4c0.2,0,0-0.9,0.2-1c-0.2-0.2-0.3,0.9-0.5,0.2c-0.1-0.8,0.3-0.7,0.2-1.6c0-0.3-0.2-0.2-0.2-0.6
				c0.1,0,0.2,0.3,0.2-0.2c0-1.1-0.6-0.5-0.7-1.4c0.3,0,0.2-0.3,0.4,0c-0.2-0.7,0-1.4-0.2-1.8c-0.2,0.3-0.6-1.2-1.1-1.2
				c-0.2,0.5,0.2,0.8,0.2,1.4c-0.3,0.1-0.2,1-0.5,1c0.1-0.5,0.2-0.4,0-1c-0.4-0.1,0,1-0.4,0.8l-0.1-1c0.3,0.2,0.3-0.3,0.2-0.8
				c-0.3,0.1-0.2,1-0.3,1.4c0.1,0,0.1,0.3,0.1,0.6c0.4-0.2,0.5,0.6,0.7,1c-0.3,0.1-0.7,0.7-0.4,1.4c-0.1-0.7,0.3-0.8,0.4-0.2
				c-0.1,0.3-0.3,0.3-0.5,0.6c0.2,0.2,0.2,0.7,0.4,1c0.4-0.1,0.4-1,0.7-1.2c0.2,0.4,0.1,1.2-0.3,1c0,0.5,0.2,0.4,0.1,1
				c-0.2,0-0.3-0.1-0.4-0.2c-0.1,0.4,0.3,0.7,0,0.8c0.1-0.7-0.2-0.3-0.3-0.2c0-0.3,0-0.7-0.2-0.6c-0.1,1,0.2,1.5,0.2,1.8
				c0.1,0.7-0.1,1.1,0.2,1.2c-0.4-0.1-0.4,1.8-0.3,2.2c0-0.2,0-0.6,0.1-0.6c0.2,0.5-0.1,0.8-0.2,1.2c-0.2,1.8-0.2,4.1-0.5,6.2
				c0,0.3-0.2,0.7-0.3,1c-0.1,0.6-0.2,1.2-0.2,1.8c-0.1,0.5-0.1,1,0,1.1c-0.5,1-0.5,2.6-0.6,3.2c-0.1,0.4-0.3,0.7-0.4,1.1
				c-0.1,0.4,0,0.5-0.1,0.8c-0.1,0.3-0.2,0.2-0.2,0.6c0,0.1,0.1,0.5,0,0.6c-0.1,0.3-0.3,0.8-0.5,1.1c-0.1,0.2-0.4,0.5-0.5,0.9
				c-0.2,0.4-0.2,1-0.4,1.6c0,0.1-0.1,0.1-0.1,0.2c0.2,1.6,0.5,3.2,1,4.7c0.1-0.4,0.3-0.9,0.5-1.3c0.4-1,0.8-1.9,0.9-1.3
				c-0.3,0.7-0.2,0.1-0.5,0.9c-0.1,0.5-0.4,1.1-0.4,1.4c0.3-0.1,0.5-0.9,0.9-1.7c0.3,0.4-0.2,0.7-0.5,1.2c0,0.3,0.2,0.4,0.2,0.8
				c-0.2,0.3-0.2,0-0.3-0.1c-0.2,0.1-0.4,0.5-0.6,1c0.6,1.9,1.5,3.6,2.9,5c0.5-0.7,1.1-1.2,1.2-2.1c-0.2,0.2-0.6,0.7-0.6,0.2
				c0.4-0.1,1-1.5,1.2-2.4c0.2,0,0.1,0.3,0.2,0.4c0.2-0.2,0.4-0.6,0.6-1c0.2-0.4,0.3-0.8,0.1-0.6c-0.1,0.3,0,0.5-0.3,0.9
				c-0.1-0.1-0.3,0.1-0.4,0c0.1-0.2,0-0.3,0.1-0.4c0.2-0.6,0.5-0.3,0.7-0.9c-0.1-0.7-0.8,1-1.2,1.4c0.3-0.8,0.6-1.1,0.9-2
				c0.2,0.4,0.8-0.9,0.7-1.1l-0.2,0.6c0-0.6-0.5,0.2-0.3-0.6c0.1,0.1,0.3-0.5,0.5-0.8c0.5-1,0.2-0.6,0.4-1.3c0.2,0,0.3,0,0.5-0.3
				c-0.1-0.3-0.2-0.5,0.1-1.2c0.3,0.1,0.5-0.2,0.7-0.7c-0.4,0-0.8,0.6-1.1,0.8c0.1-0.2,0-0.3,0-0.5c0.3-0.5,0.8-0.3,1-1.8
				c0.1,0.1,0.1,0.4,0.1,0.5c0.2-1.1,0.9-2.2,0.5-2.6c-0.2,0.6-0.1,1.4-0.5,1.5c0.1-0.4,0.5-1.3,0.1-1.1c-0.1,0-0.2,0.6-0.4,0.6
				c-0.1-0.1-0.1-0.3,0-0.7c0.3-0.8,0.3,0.1,0.6-0.3c0.2-0.7,0.4-1.8,0.6-2.1c-0.1-0.3-0.4,0.6-0.4-0.1c0.4-0.3,0.1-0.6,0.3-1.3
				c0.3-0.2,0.1,1.1,0.4,0.1c0.2-1-0.3-0.4-0.4-0.8c-0.1,0.4-0.2,0.9-0.4,1c-0.1-0.3,0.1-1.3,0.3-1.5c0.2,0.8,0.5-0.5,0.8-0.5
				c-0.1,0.3-0.1,0.8,0,0.5c0.2-0.7-0.2-0.6,0-1.4c0.4,0.2,0.5-1.2,0.7-1.9c-0.2-0.4-0.2-2.1,0.1-2.9c0.3-0.1-0.1,1,0.1,1.2
				c0.1-0.8,0.1-1.3,0.1-1.8c-0.2,0.2-0.5,0-0.6,0.4c0.1,0,0,0.6-0.1,0.7c-0.5-0.5,0.2-1,0.4-1.5c0.1-0.5-0.2-0.5,0-1.1
				c0.1,0.1,0.2,0.4,0.2-0.2c-0.3-0.2-0.4,0.2-0.6,0.2c0-0.3,0-0.5,0-0.7c0.1-0.4,0.3-0.3,0.4-0.6c-0.2-0.3-0.3-0.8-0.3-1.4
				c0.2-0.5,0-0.2-0.1-0.7c0.2-0.5,0.3-2,0.2-2.7c0,0.1-0.1,0.3-0.1,0c0.3-0.5,0.2-1.2,0.1-2c0.1,0,0.1,0.3,0.3,0.2
				c0-0.7-0.2-0.8-0.1-1.6c0.2,0.1,0.2-0.3,0.4-0.2c0-0.7-0.3-0.5-0.2-1.3c0-0.6,0.4-0.3,0.3-1.1c-0.3-0.3-0.3,0.1-0.4-0.2
				c0-0.4-0.3-1.3-0.1-1.6c0.5-0.3,0.7,1.1,1,0.6C175,75.6,175.2,75.2,175.4,74.5z M168.9,72.4c-0.2-0.7-0.4-0.7-0.3-1.4
				c0.2-0.1,0.2,0.8,0.4,0.8c0.1,0-0.2-0.9-0.2-1.5c0.1,0,0.2-0.1,0.2-0.2c0.1,0.5,0.3,1.3,0.5,2.1
				C169.3,72.5,169.1,72.1,168.9,72.4z M165.5,99.5c0.2-0.3,0.3-1,0.4-1.6c0.1,0.2,0.1,0.5,0,0.8c0.1,0.1,0.1-0.1,0.1-0.2
				C166.2,99,165.7,99.4,165.5,99.5z M166.3,104.5c-0.1-0.3,0.2-1.2,0.5-0.9C166.9,103.9,166.6,104.7,166.3,104.5z M167,98
				c-0.1-0.2-0.1-0.9,0.1-1.2C167.3,97,167.2,97.7,167,98z M167.3,97.3c0-0.5,0-1.1,0.4-1C167.6,96.6,167.6,97.5,167.3,97.3z
				 M167.2,77.1c-0.1-0.6,0.2-0.4,0.1-0.8c0.2,0.6,0.3,1.1,0.5,1C167.9,78.2,167.3,77.2,167.2,77.1z M168.4,81.6
				c-0.1,0-0.2,0-0.2,0.2c-0.2,0-0.1-0.9-0.1-1.2C168.2,80.9,168.4,80.9,168.4,81.6z M167.9,116.1c-0.2-0.1,0.1-0.9,0.4-1.1
				C168.5,115.1,168.1,115.9,167.9,116.1z M169.5,90.9c0,0.4-0.1,0.9,0,1.1c-0.1,0.4-0.1-0.2-0.1-0.2c-0.3,0.3-0.2,1.1-0.3,1.9
				c-0.4-0.3,0.2-1.9,0.3-2.3c0.1-0.6-0.3-0.3-0.1-1.1C169.5,90.1,169.5,90.5,169.5,90.9z M169.4,85.8c-0.3-0.4,0.2-1,0-2.1
				c0.1,0.1,0.2,0.3,0.2,0.6c0.1-0.2,0.2-0.2,0.4,0C169.8,85.2,169.5,85.2,169.4,85.8z M169.9,81.6c0.2-0.4,0.4,0.1,0.4,0.6
				C170.1,82.3,169.9,82.2,169.9,81.6z M173,98.3c0-0.5-0.4-1,0-1.6C173.2,97,173.2,97.5,173,98.3z M174.1,95.4
				c-0.1,0.6-0.2,1.2-0.5,1C173.7,95.8,173.8,95.2,174.1,95.4z M173.6,94.3c-0.2-0.1-0.1-0.6,0-1.1C173.9,93.1,173.8,94,173.6,94.3z
				 M173.9,90.3c0.1,0.2,0.3,0.4,0.2,0.9c-0.1,0.2-0.2,0.2-0.4,0.2C173.7,90.9,173.9,91,173.9,90.3z"/>
			<path class="st9" d="M160.7,129.5c0.1-0.1,0.1-0.2,0.2-0.3c-1.5-0.4-3-0.9-4.4-1.6l0,0c0,0.3-0.3,0.8-0.3,1.1
				c-0.5,0.7-0.1,0-0.3,0c-0.5,0.7-0.8,1.3-1.2,1.8c-0.4,0.6-0.8,1.1-1.5,1.8c-0.1,0.2-0.2,0.4-0.1,0.5c-0.7,0.8-1.6,1.6-2.5,2.6
				c-0.5,0.5-1.4,2.2-1.7,1.6c1.6-1.8,2.4-2.5,3.7-4.3c0.4-0.4,0.3-0.6,0.3-0.8c0.3-0.3,0.5-0.5,0.8-0.8c0.2-0.3,0.5-0.6,0.7-0.8
				c0.4-0.6,0.8-1.1,1.2-1.7c0.2-0.2,0.4-0.6,0.4-0.8c0.1-0.1,0.1-0.2,0.2-0.3c-0.7-0.4-1.5-0.8-2.2-1.3c-0.1,0.1-0.1,0.3-0.2,0.4
				c-0.1,0.2-0.4,0.4-0.7,0.7c-0.3,0.4-0.6,0.9-0.8,1.2c-0.2,0.2-0.2,0.2-0.4,0.4c-0.5,0.7-1.6,1.9-2.5,2.9
				c-0.8,0.8-1.4,1.5-1.5,1.5c-0.7,0.8-0.8,1.1,0,0.5c-0.3,0.5-0.7,0.9-1.1,1.3c-0.5,0.4-0.9,0.8-1.4,1.3c-0.4,0.5-0.7,0.9-1.1,1.3
				c-0.7,0.6-1.5,1.4-2.3,2.1c-0.8,0.7-1.7,1.4-2.6,2.1c-0.8,0.7-1.7,1.2-2.4,1.8c-0.7,0.5-1.4,1-1.9,1.2c0,0.1-0.1,0.3-0.2,0.5
				c-0.9,0.6-1.7,1.1-2.4,1.2c0,0.1,0.2,0.2,0,0.3c-0.5,0-0.7,0.5-1.4,0.8c-0.5,0.3-0.3-0.2-0.8,0.2c0,0.1,0,0.2-0.3,0.4
				c-0.4,0.2-0.3-0.1-0.8,0.2c0,0.4-0.7,0.5-1.1,0.6c-0.6,0.3-1.5,0.8-2.3,1.2c-0.9,0.4-1.7,0.8-2.3,1c-0.6,0.2-1,0.5-1.7,0.8
				c-0.2,0.1-0.3,0-0.6,0.1c-0.6,0.2-1,0.5-1.5,0.7c-0.4,0.1-0.3-0.2-0.8,0.1c-0.4,0.3-1,0.7-1.6,1c0.7-0.2,0.4,0.3,0.1,0.5
				c0.6-0.1,1.1,0,1.9-0.2c0.4-0.1,0.8-0.5,1.2-0.4c-0.6,0.5-1.1,0.7-1.9,0.8c-0.2,0.4,0.6,0,0.5,0.3c-0.8,0.2-1,0-0.8-0.3l-0.4,0.1
				l-0.4,0.1c0.2,0.2,1.1,0.2,0.6,0.7c0.4-0.1,0.7-0.2,0.9-0.1c-0.4,0.1-0.1,0.3-0.5,0.5c-0.6,0.2-1.2,0.4-1.8,0.6
				c-0.6,0.2-1.2,0.3-1.8,0.5c-0.6,0.1-1.2,0.3-1.7,0.4c-0.6,0.1-1.1,0.2-1.6,0.4c-0.3,0.1-0.3,0.3-0.6,0.5
				c-0.2-0.1-0.3-0.3-0.7-0.3c-0.8,0.1-0.4,0.4-0.8,0.5c-0.5-0.1-0.7-0.3-1.5-0.1c-0.3,0.2-1.1,0.8-1.4,0.4c0.3-0.1,0.8-0.1,0.8-0.2
				c-0.5,0.1-0.6-0.1-1.3,0.1c0,0.1,0.1,0.3-0.4,0.3c-0.1,0.2,1,0.2,0.3,0.4c-0.3,0-0.5-0.1-0.7-0.2c0.3-0.1,0.4-0.2,0.4-0.4
				c-0.5-0.2-1,0.1-1.7,0.2c0.4-0.2-0.4-0.4,0.4-0.5c0.6,0,1.6-0.1,2.5-0.2c0.2-0.5-1.4,0.2-1.5-0.1c0.2,0,0.2-0.1,0.2-0.2
				c0.6,0.2,0.7-0.2,1.2-0.3c0.3,0.2,0.5,0.1,0.3,0.4c0.5,0,2-0.1,2.5-0.4c-0.5,0.1-0.8,0.1-0.9,0c0.3-0.1,0.5-0.2,0.8-0.3
				c0,0.3,0.5,0.1,0.9,0.1c1-0.5,2.1-0.4,2.8-1c0.3-0.2-0.2-0.6,0.4-0.9c-0.4,0.1-0.7,0.1-0.8,0c0.8-0.2,0.6-0.5,1.1-0.7
				c0.4-0.1,1.2-0.1,1.4-0.4c-0.7-0.2-1.9,0.5-2.5,0.9l-0.1-0.4c-1,0.2-1.6,0.2-2.4,0.3c-0.4,0.2-0.9,0.4-1.4,0.6
				c-3.3,0.4-6.7,0.9-9.5,1.5c-0.3,0-0.5-0.1-0.8-0.1c-0.7,0.2-2,0.3-2.9,0.2c-0.5,0.1-0.7,0.3-1.5,0.3c0-0.1,0.9-0.3,0.2-0.4
				c-0.1,0.2-0.8,0.2-1.3,0.2l0-0.3c-0.5,0-1.2,0.1-1.7,0.1c-0.6,0-1.2-0.1-1.5-0.3c-0.1,0.1-0.2,0.2-0.4,0.2
				c-0.9-0.1-2.6-0.1-4.1-0.4c0,0-0.3-0.2-0.4-0.2c-0.6-0.2-1.2-0.1-1.4-0.3c0-0.1,0.4,0,0.4-0.1c-0.9-0.3-1,0-1.5,0
				c0.1-0.2-0.1-0.3-0.5-0.4c-0.5-0.1-0.6,0.1-1,0c-0.4-0.1-0.8-0.4-1.2-0.4c-0.5-0.1-0.5,0.1-1,0c0-0.1-0.1-0.1-0.4-0.2
				c0.1-0.1,0.4-0.1,0.1-0.3c-1.1,0-2.6-0.4-4.1-0.9c-1.5-0.5-3.1-1.1-4.5-1.6c-0.5-0.2-1.1-0.4-1.8-0.7c-0.6-0.3-1.2-0.6-1.8-0.8
				c-0.2,0.1-2-0.6-0.9-0.4c-1.2-0.2-2-1.1-3.3-1.6c-0.2,0.2-0.6,0.1-1.1-0.1c0-0.1-0.1-0.2-0.1-0.3c0.1-0.1,0.5,0.2,0.6,0.1
				c-0.8-0.6-1.1-0.5-1.6-0.6c-0.1-0.3-0.7-0.7-1.4-1.1c-0.7-0.4-1.6-0.9-2.1-1.3c-0.2-0.2-1.1-0.7-0.6-0.2c0.3,0.2,0.9,0.5,0.6,0.6
				c-0.9-0.7-1-0.5-1.8-1c-0.3,0.1,0,0.4-0.2,0.6c-0.3-0.2-0.4-0.1-0.6-0.2c-0.9-0.6-1.8-1.2-2.6-1.9l-2.5-2
				c-0.5,0.2,0.7,0.7,0.6,0.9c-0.4,0.1-0.7-0.5-1.4-1l0.2-0.3l-0.6-0.5c-0.3-0.3,0.1,0.4-0.5-0.1c-0.3-0.3-0.4-0.6-0.4-0.8
				c-0.7-0.7-0.8-0.8-1.6-1.6c-0.3,0.1-0.1,0.4-0.2,0.5l-0.6-0.6c-0.6-0.2,0.2,1.2-0.9,0.3c-0.2,0.4,0.2,1.1-0.3,1.4l-1.2-1.2
				c-0.2-0.9-1.7-2.3-2.1-3.3c-0.1,0-0.2,0.2-0.4,0c-0.4-0.5-0.6-0.5-1.1-1.1c-0.4,0-0.6-0.1-0.9-0.4c-0.1-0.1-0.1-0.3-0.2-0.4
				c-0.2-0.2-0.2,0.2-0.5,0.1c-0.1,0-0.2-0.3-0.3-0.3c-0.3-0.1-0.3,0.1-0.6-0.1c0.2,0.2,0.3,0.4,0.1,0.4c-0.5-0.3-0.3,0-0.8-0.2
				c0.2,0.3,0.6,0.6,0.5,0.7c-0.2-0.2-0.3-0.2-0.5-0.4c-0.2,0.3,0.5,1.5-0.4,1.1c0.3,0.6,0.6,0.9,0.1,0.8c0.6,1,0.2,1.4,0.9,2.5
				c-0.1,0.3,0.3,0.8,0,0.9c0.8,0.9,1.6,2,2.6,2.9c0.4,0.3,0.7,0.3,1,0.6c0.6,0.5,1.3,1.1,1.9,1.6c0.6,0.5,1.2,0.9,1.5,1
				c0.5,0.7,1,0.8,1.6,1.3c0.7,0.6,1.6,1.3,1.9,1.5c0.2,0.1,0.6,0.2,0.7,0.3c0.6,0.7,0.2,1.1-0.5,0.9c0.4,0.5,1.1,0.5,1.1,0.8
				c-0.5-0.4-0.5,0.2-1.1-0.4c-0.1,0.2,0.1,0.5-0.2,0.6c0.8,0.4,1.4,0.9,2.1,1.4c0.6,0.4,1.2,0.6,1.9,1c1.1,0.6,2.3,1.4,3,1.8
				c0.8,0.5,1.8,1,2.6,1.4c0.1,0.1,0.5,0.1,0.7,0.2c0.3,0.2,0.8,0.6,1.2,0.7c0.6,0.3,1.2,0.4,1.7,0.7c0.2-0.4,1.5,0.5,2.4,0.9
				c1.1,0.1,2.8,1.3,4.7,1.8c0.1-0.1,0.1-0.1,0.3-0.1c0.5,0.1,1.2,0.4,2,0.6c0.8,0.2,1.5,0.5,1.9,0.7c-0.5,0,0,0.3-0.2,0.5
				c1,0.4,1.8,0.7,3,1c-0.2-0.4,0.7,0.1,0.9,0.1c0.2,0,0.1-0.3,0.5-0.1c0.5,0.3-0.5,0.2,0.4,0.4c0.6,0.1-0.3-0.2,0.1-0.4
				c0.6,0.3,1-0.1,1.1,0.2c-0.9,0,0.2,0.3-0.4,0.4c0.5,0.1,2.5,0.6,2,0.4c-0.3-0.1-0.8-0.2-0.9-0.3c0.6,0.2,0.9,0.1,1.4,0.2
				c0.1,0,1,0.1,1.1,0.2c0.1,0,0.1,0.2,0.4,0.3c0.1,0,0.3-0.1,0.7-0.1c0.4,0.1,0.6,0.2,1.1,0.3c0.6-0.1,1.3,0,2.1,0
				c0.8,0,1.5,0.2,2,0.3c0.1-0.1,0-0.3,0.3-0.2c1,0.3,3.2,0.2,5,0.3c0.4,0,0.5,0.1,0.9,0.1c0.2,0,0.4-0.1,0.9-0.2
				c0.1,0,0.5,0.1,0.9,0c1.4-0.1-1,0-0.4-0.3c0.8,0,1,0.1,1.1,0.3c0.7,0,0.8,0.2,1.6,0.1c0.3,0,0.2-0.2,0.5-0.2
				c0.4,0,0.2,0.2,0.7,0.2c0.6-0.4,1.6,0,2.7-0.3c0.3,0.2,0.3,0.5,0.9,0.5c0-0.2,0-0.3,0.4-0.3c-0.1,0.5,0,0.6-0.7,1.1
				c1.8-0.1,2.3-0.1,3.9-0.3c0-0.2,0.1-0.3,0.4-0.4c0,0.2,0.6,0.1,1.2,0.1c0.1-0.3-0.6-0.1-0.5-0.4c0.4,0,0.8,0.1,0.7,0.4
				c0.7,0,0.3-0.3,0.9-0.4c1.1-0.2,2.2-0.5,3.3-0.7c1.1-0.3,2.1-0.6,3.2-1.1c0.1,0.1,0.3,0.2,0.5,0.2c1.4-0.5,2.9-0.9,4.4-1.4
				c0.8-0.3,1.5-0.5,2.3-0.8c0.4-0.1,0.8-0.3,1.2-0.4c0.4-0.2,0.8-0.3,1.2-0.5l0.6-0.5c0.6,0.1,0.4-0.1,1.1-0.4
				c0.3-0.1,0.4,0,0.7-0.1c-0.1,0,0.6-0.3,0.8-0.4c1.2-0.6,1.7-0.8,2.5-1.2c0-0.6,1.5-0.8,1.6-0.9c0,0,0.1-0.2,0.1-0.3
				c0.3-0.2,0.7-0.3,0.9-0.3c0.5,0,0.9-0.4,1.4-0.7c0.4-0.2,1-0.6,1.4-0.8c0.8-0.5,1.7-0.9,2.2-1.2c0.1,0,0.1-0.2,0.3-0.3
				c0.2-0.1,0.3-0.1,0.4-0.2c0.7-0.5,1.1-1.1,1.8-1.4c0.1,0.1,0.1,0.3,0.5,0c0.8-0.5,0.1-0.4,0.4-0.6c0.3-0.1,1.3-0.5,1.3-0.8
				c-0.3,0.2-0.6,0.5-0.7,0.2c0.6-0.6,0.7-0.2,1.2-0.6c0-0.6,1.7-1,1.9-1.6c-0.1,0.1-0.2,0.1-0.1-0.1c0.1,0.1,0.4-0.1,0.4,0.2
				c0.3-0.3,1.2-0.8,1.2-1c-1.2,1,0.1-0.8,0.5-0.8c0.1,0.1-0.5,0.4-0.4,0.6c0.9-0.8,1.4-1.5,2.6-2.2c0-0.1-0.2-0.2,0-0.4
				c0.4,0,0.6-0.7,1.2-1c0.1,0.1-0.1,0.3,0,0.4c0.7-1.1,0.9-0.2,1.4-1.1c0-0.4-0.6,0.5-0.6,0c0.2-0.2,0-0.3,0.2-0.5
				c0.2-0.1,0.6-0.7,0.8-0.8c0,0,0.1,0.2,0.1,0.1c0.5-0.4,0.9-0.9,1.6-1.6c0-0.1-0.1-0.1,0-0.3c0.9-0.8,1.8-1.9,2.8-2.9
				c-0.1-0.1-0.2-0.2-0.1-0.4c0.6-0.6,0.2-0.7,0.7-1.2c0-0.2-0.6-0.2-0.3-0.5c0.2-0.2,0.5-0.6,0.6-0.6c-0.4,0.7-0.1,0.5,0,0.9
				c0.5-0.7,1-1.6,1.3-1.8c0,0.3-0.2,0.7,0.2,0.5c0.3-0.6,1-1.5,1.5-2c0.1-0.5-0.5-0.1,0-0.9c0.2,0.2,0.5-0.3,0.6-0.4
				c0.1-0.1-0.1,0.5,0.3-0.1C161.1,129.7,160.4,129.9,160.7,129.5z M111.8,156.6c-0.3,0.4-0.7,0-1.2,0.2
				C110.8,156.5,111.5,156.6,111.8,156.6z M107.8,156.6c0.2,0,0.1-0.2,0.2-0.2c0.2-0.1,1.3,0,1.3,0.2c-0.7,0-0.8,0.3-1.4,0.3
				c0-0.2-0.1-0.3-0.4-0.2C107.2,156.4,107.8,156.5,107.8,156.6z M105.2,157.8c-0.1,0.2-1.3,0.2-1.3,0
				C104.4,157.7,104.8,157.8,105.2,157.8z M46.2,141.2c-0.7-0.5-0.3-0.9,0.3-0.3L46.2,141.2z M48.8,151.5c-0.3-0.2-0.3-0.4-0.7-0.6
				c0.1-0.2,0.2-0.3,0.5-0.2C49.2,151,48.7,151.2,48.8,151.5z M51,144.3c-0.5-0.4-1.1-0.8-0.8-1C50.7,143.7,51.2,144.1,51,144.3z
				 M53.7,154.8c-0.3-0.3-0.4-0.5-1.1-0.9c0.1-0.2,0.3-0.1,0.7,0.1c-0.1-0.1-0.1-0.3,0-0.4c0.8,0.5,0.4,0.5,0.1,0.6
				C53.6,154.5,53.9,154.7,53.7,154.8z M56.8,155.9c-0.7-0.7-1.4-0.5-2.1-0.9c-0.1-0.4,0.7-0.1,1.2,0.2
				C56.3,155.4,57.1,155.8,56.8,155.9z M57.3,156.1c0.2-0.3,0.9,0,1.3,0C59.4,156.7,58.1,156.6,57.3,156.1z M58.2,147.7
				c-0.3-0.1-0.3-0.2-0.3-0.4c-0.4-0.4-0.7,0-0.7-0.4c0.1-0.2,0.4,0,0.7,0.2c0.3,0.2,0.7,0.5,1,0.6C58.9,148,58.1,147.3,58.2,147.7z
				 M74.4,154.8c-0.6-0.1-0.4-0.4-0.9-0.6C73.8,154.1,74.6,154.6,74.4,154.8z M88.9,160.1l-0.6-0.1l0-0.4
				C88.9,159.7,89,159.9,88.9,160.1z M113.3,157.6c-0.4,0,1-0.5,1.6-0.6C115.3,157,113.6,157.4,113.3,157.6z M116.4,157
				c0.8-0.3,0.8,0,1.3-0.1C117.4,157.2,116.5,157.2,116.4,157z M119.2,155c0.3-0.3,0.9-0.3,1.4-0.5
				C120.3,154.7,119.2,155.4,119.2,155z M124.9,154.2c-0.3,0.1-0.3,0.2-0.6,0.3c-0.4,0.2-1.2,0.3-1.7,0.4c-0.5,0.2-0.6,0.4-1,0.5
				c-0.4,0.1-1.2,0.3-1.3,0.1c-0.4,0.1-0.4,0.2-0.8,0.4c-0.8,0.1,0.6-0.2,0.4-0.3c1.2-0.3,2.8-0.8,3.8-1.5c0.2,0,0.6-0.2,0.7-0.1
				c0.2-0.3,0.9-0.6,1.7-0.9c0.2,0,0.2,0.3,0.7,0C126.9,153.4,125.4,154,124.9,154.2z M146.6,139.6c-0.8,0.8-1.6,1.8-2.3,2.2
				c0-0.4,0.4-0.8,1.2-1.5c0,0-0.1-0.1,0.1-0.2c0,0,0.1,0.1,0.2-0.1c0.3-0.3,0.2-0.5,0.7-0.9c0.4-0.3,0.9-0.5,1.3-0.8
				C147.9,138.8,147,139.2,146.6,139.6z M148.3,138.3c-0.1-0.1,0.1-0.2,0.2-0.4c-0.1-0.2-0.5,0.1-0.7-0.1
				C148.8,136.9,149.1,137.5,148.3,138.3z M158.2,133c0.2-0.4,0.6-1.2,1-1.5C159.2,132,158.7,132.3,158.2,133z"/>
			<path class="st9" d="M167.6,74.7c-0.1-0.5-0.4-0.7-0.3-1.4c-0.4-0.2-0.2,0.5-0.5,0.5c-0.1-0.3,0.1-0.5,0.1-0.4
				c-0.1-1-0.8-1.6-0.7-2.8c0.2,0,0.2-0.4,0.2-0.9c-0.2,0.2-0.3,0.5-0.5,0.7c0,0.1,0,0.2-0.1,0.2c0,0,0,0,0,0c0,0,0,0.1-0.1,0.1
				L166,72c0.1,0.3,0.4,0,0.4,0.4c0,0.6,0,0.5,0.3,1c-0.1,0-0.3,0-0.2,0.4c0.4,0.1,0.5,0.2,0.7,0.3c0,0.2,0.1,0.6,0,0.6
				c-0.2-0.4-0.6-0.3-0.7-0.7c0.2,1.1,0.8,0.9,1.1,1.5c0,0.2,0,0.4,0.1,0.4C167.5,75.3,167.6,75,167.6,74.7z"/>
			<path class="st9" d="M83.4,4.2c-0.1,0.3,0.5,0.2,0.7,0.2c0.1,0-0.3,0.2-0.2,0.2c0.2,0,1.1-0.2,0.9,0.2c-0.7,0.1-1.1,0-2,0.1
				c0.1-0.2,0.6-0.4,0.2-0.5c-0.5,0.1-2.2,0.3-1.3,0.4c0-0.2,1-0.2,0.9,0C82.1,5,81,5.2,80.6,5.6c0.6-0.2,1.5-0.3,2.5-0.4
				C84,5.1,85,5,85.7,4.8c-0.5,0.1-0.1-0.3,0.2-0.3c0.9-0.1,1.3,0.1,2.2,0.1c-0.1-0.3-0.8-0.4-1.6-0.3c-0.8,0-1.7,0.2-2.2,0.2
				c0.4-0.2,0-0.2,0-0.5c0.8,0.2,2.2,0.1,2.7-0.4c-0.4,0-0.8,0.1-0.7-0.1c-1.4,0-1.6,0.4-2.7,0.5C83.6,4.1,83.6,4.2,83.4,4.2z"/>
			<path class="st9" d="M175.3,84.6c0,1.1-0.1,1.7-0.2,2.7c0.4,0.2,0.1-1.4,0.3-1.6C175.2,85.9,175.5,84.6,175.3,84.6z"/>
			<path class="st9" d="M175.5,91c0.3-0.1,0.3-1.3,0.4-2.2c0.1-0.9,0.1-2,0.2-2.5C175.5,86.6,175.7,89.5,175.5,91z"/>
			<path class="st9" d="M166.5,76.6c0.1,0,0.2,0.1,0.3,0.2c0.1-0.7-0.3-0.9-0.2-1.8c-0.3,0.3-0.2-0.4-0.4-0.6c0,0-0.2,0.5-0.3,0
				c0.1-0.2,0.1-0.5,0-1c-0.3-0.1-0.1,0.7-0.1,1c0,0.4-0.1,0.6,0,1c0.2,0,0.2-0.3,0.2-0.4c0.1,0.9,0.3-0.3,0.4,0.6
				C166.3,75.5,166.5,76.3,166.5,76.6z"/>
			<path class="st9" d="M130.2,147.1c0.1,0.1,0.2,0.2,0.4,0c0.6-0.4,1.2-0.7,1.8-1c0.5-0.4,1-0.7,1.5-1.1c-0.7,0.4-1.3,0.8-1.9,1.1
				C131.3,146.4,130.7,146.7,130.2,147.1z"/>
			<path class="st9" d="M65.9,9.7c0.7-0.2,1.1-0.2,1.4,0c-0.7,0.4-2.2,1-2.6,0.8c0.2,0.2-0.6,0.5,0,0.5c0.7-0.4,1.8-0.7,2.9-1.2
				c0.3-0.1,0.7-0.4,1-0.6c0.4-0.2,1.3-0.3,1-0.5c-0.6,0.1-1,0.3-1.3,0.5c-0.4,0.2-0.7,0.3-1,0.2l-0.1-0.3c0.6-0.3,0.6-0.1,1.1-0.3
				c-0.1-0.3-1,0.1-1.8,0.4c-0.5,0.2-1.1,0.4-1.7,0.6c0,0.1-0.6,0.3-0.6,0.4c0.8-0.3,1.7,0,2.4-0.5C66.1,10,65.8,10,65.9,9.7z"/>
			<path class="st9" d="M70.4,8.5c1.2-0.2,1.1-0.6,1.8-0.9c0.1,0.2-0.8,0.5,0.1,0.4c0.5-0.3,0.1-0.3,0.5-0.6c-0.7,0.2-1,0.2-1.5,0.3
				C71.2,7.9,71.1,8,71,8.2c-0.3,0-0.7,0.1-0.7-0.2c0.3-0.1,0.5-0.2,0.4-0.3c-0.9,0.3-1.7,0.6-1.6,1C69.9,8.4,70.3,8,70.4,8.5z"/>
			<path class="st9" d="M81.6,4.1c-0.7,0-0.5,0.2-0.9,0.3c-0.4-0.1,0-0.1,0-0.4c-0.8,0.3-2,0.3-2.2,0.9c0.6-0.2,0.7,0,0.7,0.2
				c0.9-0.1,0.8-0.4,1.3-0.6c0,0.1-0.1,0.2-0.2,0.3c1.5-0.2,2.5-0.6,3.1-1c0.4-0.1,0.8-0.1,0.7-0.3c-0.3,0-1.7,0.3-1.6,0.2
				c0,0,0.6-0.2,0.4-0.2c-0.7,0-0.9,0-1.3,0.3c1.1-0.2,0.3,0,0.5,0.3c0.2,0,0.4-0.1,0.5,0c-0.4,0-1.3,0.3-1.3,0.1
				C81.2,4.2,81.5,4.2,81.6,4.1z"/>
			<path class="st9" d="M71.9,5.3c1.3-0.6,2.9-0.8,4.7-1.2c0.4-0.2,0.2-0.5,1.1-0.4c-0.2,0.2-0.3,0.5-0.8,0.7
				c-0.4,0.1-0.8,0.2-0.6,0.3c1.6-0.3,3.1-0.9,4.3-0.7c-0.1-0.2,0.2-0.2,0.2-0.4c-0.9,0.1-2.2,0.5-2.3,0.1c0.8-0.3,1-0.1,1.8-0.4
				c-0.7-0.3,0.7-0.4,0.6-0.8c-0.2-0.1-0.7,0-1-0.1c-1.3,0.2-2.4,0.6-3.3,0.8c-0.9,0.3-1.7,0.5-2.3,0.8c-0.6,0.3-0.3,0-0.9,0.2
				c-0.8,0.3-1.5,0.8-2.3,1.1C71.3,5.2,71.7,5.2,71.9,5.3z M74.2,4.2c0.7-0.2,1.7-0.5,1.6-0.1c-0.2,0-0.6,0.1-0.7,0
				C74.5,4.2,72.7,4.6,74.2,4.2z"/>
			<path class="st9" d="M56.6,11.6c-0.8,0.4-1.7,0.8-2.5,1.2c-0.8,0.4-1.7,0.8-2.4,1.3c-0.4,0.2-0.6,0.5-0.9,0.7
				c-0.4,0.2-0.7,0.2-1.1,0.4c-0.4,0.2-0.8,0.6-1.1,0.8c-1.2,0.8-2.5,1.5-3.6,2.4c-0.4,0.3-0.6,0.6-1,1c-1.5,1.3-3.2,2.5-4.9,4.1
				c-0.3,0.3,0.1,0.3-0.3,0.7c-0.6,0.5-1.3,1.3-1.7,1.5c-0.1,0.2,0,0.5-0.5,0.8c-0.2-0.1,0.4-0.5,0.3-0.7c-1.1,1.2-2.2,2-2.6,2.9
				c-1.1,0.7-1.5,1.8-2.1,2.5c-0.2,0.2-0.3,0.2-0.5,0.5c-1,1.2-2.2,2.7-3.3,4.1c-0.3,0.4-0.2,0.5-0.5,0.8c-0.2,0.2-0.4,0.4-0.5,0.5
				c-0.1,0.2-0.2,0.6-0.4,0.9c-0.2,0.3-0.5,0.6-0.7,0.9c-0.2,0.2-0.1,0.3-0.3,0.6c-0.7,1.2-1.5,2.1-2.1,3.3
				c-0.3,0.5-0.5,1.2-0.7,1.7c-0.1,0.3-0.2,0.2-0.4,0.6c-0.2,0.4-0.1,0.5-0.3,0.9c-0.7,0.6-1,2.1-1.6,3.3c-0.7,1.3-1.3,2.8-1.9,4.4
				c-0.1,0.4-0.2,0.9-0.3,1.4c-0.1,0.3-0.4,1.4-0.6,2c-0.3,0.9-0.7,1.9-1,2.3c-0.1,0.3,0.2,0.2,0,0.7c-0.4,0.4-0.3,0.9-0.7,1.7
				c0.1,0.1,0.2,0.1,0.1,0.3c-0.3,0.9-0.6,1.8-0.8,3.1c-0.1,0-0.2-0.1-0.3,0.1c0.1,0.1,0,0.8-0.1,1.2c-0.1,0.7-0.4,1.4-0.6,2.1
				c-0.2,0.7-0.4,1.4-0.5,1.8c-0.1,0.3,0,0.5,0,0.7c0,0.1-0.3,0.2-0.3,0.6c0.3,1-0.6,2.8-0.3,3.9c-0.4,0.1-0.5,1.2-0.7,2
				c0.2-0.2,0.5,1.1,0.1,1.9c0.1-0.5-0.2-0.9-0.2-0.5c0.1,1.3-0.2,2.5-0.1,3.7c0,0.5-0.3,0.4-0.3,1.1c0.1,0.8,0,1.1,0,1.8
				c0,1,0.1,1.7,0.1,2.5c0,0.3-0.1,0.5-0.1,0.9c-0.1,3.8,0.4,7.9,1,11.8c0.1,0.6,0.1,1.2,0.3,1.8c0.4,1.6,0.8,3.6,1.2,5.2
				c0.1,0.3,0.2,0.4,0.4,0.9c0.2,0.6,0.3,1.2,0.5,1.8c0,0,0.1-0.1,0.1-0.1c-0.1-0.4-0.2-0.9,0-0.7l0.2,0.6c0.1-0.1,0.2-0.2,0.3-0.2
				c0-0.5-0.5-1.1-0.2-1.4c0.1,0.5,0.2,0.9,0.3,1.2c0.2-0.1,0.3-0.2,0.5-0.4c-0.2-0.3-0.3-0.5-0.5-0.7c0.1-0.7-0.5-0.9-0.6-1.7
				c0.2-0.1,0.3,0.2,0.4,0.1c-0.3-1-0.7-0.2-0.8-1l0.4-0.1c-0.3-0.8-0.1-0.9-0.3-1.6c-0.4-0.5-0.4,0-0.7-0.3c0.1-0.3,0.3-0.5,0.2-1
				c0.3,0.4,0.1,1.4,0.6,1c-0.1,0.7,0.3,1.1,0.4,1.5c0.1,0.3-0.2,0.5,0.1,0.9c0.4,0.6,0.6,1.3,1,2.5c0.5-0.4,1-0.8,1.5-1.3
				c-0.4-1.3-0.7-2.6-1-3.5c-0.1-0.4-0.3-0.9-0.4-1.3c-0.2-0.9-0.3-1.7-0.5-2.6c-0.2-0.8-0.3-1.7-0.5-2.5c-0.2-0.9-0.3-1.9-0.5-2.9
				l-0.4-0.6c0.1,0,0.1-0.3,0.3-0.2c-0.1-0.7-0.2-1.8-0.3-2.9c-0.1-1.1-0.1-2.3-0.2-3.4c-0.5-0.2,0.2,0.7-0.1,0.9
				c-0.1-0.2-0.2-0.7-0.2-1.1c0-0.4,0.1-0.6,0.3-0.2c-0.2-1.6,0-3.8-0.2-5.1c0.2,0,0.2-0.4,0.2-0.9c-0.3,0.6-0.5-0.4-0.3-0.9
				c0,0.3,0,0.6,0.1,0.7c0-1,0.2-1.8,0.3-2.7c0.2-1.4-0.2-1.6,0.1-2.9c-0.3-0.3-0.3,0.7-0.5,0.8c0.1-1.6,0.4-2.5,0.8-3.3
				c0.1-1.3,0.6-3,0.6-4c0,0.2-0.1,0.4-0.2,0.4c0.1-0.9,0.3-1.4,0.5-1.7c-0.3,0.3,0-1,0.1-0.9c-0.1,0.1-0.1,0.8-0.1,0.7
				c0.2-0.4,0.6-2.4,0.4-2.7c0.5-0.3,0.5-1.5,0.7-2.3c0.1-0.4,0.2-0.4,0.3-0.8c0.4-1.4,1-3.3,1.3-4.2c0.7-1.6,1.2-3,1.7-4.2
				c0.6-1.3,1-2.5,1.6-3.8c0.2-0.5,0.7-0.9,0.5-1.2c-0.1,0.2-0.3,0.6-0.4,0.6c0.3-0.8,0.6-0.7,0.9-1.3c-0.1-0.5,0.2-0.6,0.5-1.2
				c0.4-0.7,0.5-0.9,0.8-1.3c0.1-0.3,0-0.3,0.1-0.5c0.1-0.3,0.3-0.8,0.6-1.3c0.3-0.5,0.5-1,0.6-1.1c0.2-0.3,0.4-0.4,0.6-0.7
				c0.2-0.3,0.3-0.7,0.5-1c0.3-0.5,0.7-0.9,1.1-1.4c0.5-0.7,1-1.5,1.5-2.2c0.5-0.7,1-1.4,1.6-2.1c0.3-0.4,0.6-0.7,0.9-1.1
				c0.3-0.3,0.6-0.7,0.9-1c0.2-0.3-0.1-0.3,0.4-0.8c-0.1,0.5,0.1,0,0.3,0c0.8-1.1,1.6-1.9,2.5-2.8c0.4-0.4,0.8-0.9,1.3-1.3
				c0.5-0.4,1-0.8,1.5-1.3c0.2-0.4,0.5-1.3,1.3-1.6c-0.3,0.3-1.1,0.8-0.7,0.9c0.7-0.5,1.5-1.2,2.4-2c0.9-0.8,1.7-1.6,2.6-2.1
				c0.2-0.2,0.1-0.3,0.2-0.4c0.5-0.3,0.9-0.4,1.4-0.7c1-0.9,2.1-1.6,3.1-2.2c-0.2-0.1,0.6-1,1-0.9c-0.3,0.2-0.6,0.4-0.5,0.5
				c0.5-0.1,0.7-0.6,1.5-1c-0.7,0.1,0.3-0.8,0.8-0.8c0.2,0.1-0.9,0.5-0.4,0.6c1-0.7,1-0.7,1.7-1c0.2-0.4,1-0.8,0.9-1.2
				c-0.4,0.2-0.4,0.1-0.7,0.2c0.4,0.1,0.2,0.2-0.2,0.5c-0.1-0.4-0.6-0.1-1.2,0.2c-0.2,0.2-0.1,0.2-0.3,0.4c-1,0.5-2,1.2-3.2,2.1
				c0-0.2,0.1-0.3-0.1-0.2c-4.4,2.8-6.1,4.6-10.3,8.2c0.1,0.2,0.3-0.1,0.5-0.1c-0.2,0.2-0.1,0.2-0.3,0.4c-0.4,0.4-0.6,0.4-0.7,0.2
				c-0.4,0.3-1.1,1.2-1.3,1.2c-0.1-0.3,0.5-0.7,0.9-1c-0.1-0.1-0.1-0.2,0.2-0.4c0.4-0.4,0.8-0.7,1.1-0.8c0.6-0.5,0.2-0.6,0.8-1.1
				c1-0.6,2.5-2.1,3.1-2.6c-0.1,0.1-0.3,0.3-0.4,0.2c1.4-1,2.1-1.6,3.3-2.8c0.1,0.1-0.4,0.7,0,0.4c-0.1-0.2,0.4-0.1,0.7-0.5
				c-0.3,0-0.3,0,0-0.4c1.2-0.3,1.8-1.4,3.2-2.1c0-0.5-0.8,0.3-0.9-0.1c1-0.8,1.6-1,2.8-1.9c0-0.4-0.8,0.4-0.8,0
				c0.7,0,1.3-0.7,1.1-0.8c0.3-0.1,0.5-0.1,0.5,0c0.7-0.4,0.3-0.6,1.1-0.9c0.3,0.3,1-0.5,1.4-0.8C55.9,12,56.9,11.8,56.6,11.6z
				 M12.8,87.6c0,0.3,0,0.6,0,0.9C12.5,88.8,12.4,87.3,12.8,87.6z M13.2,92c-0.2-0.3-0.5-0.3-0.5-1.1c0.3-0.3,0.1,0.7,0.4,0.4
				c0.1-0.4,0.1-1.1,0.4-1.2C13.6,91.2,13,90.8,13.2,92z M13.4,100.3c-0.1-0.3-0.1-0.6-0.2-0.9C13.6,99.2,13.8,100.4,13.4,100.3z
				 M14,99.3c0.2,0.2,0.3,0.7,0.4,1.3c-0.2,0-0.4-0.3-0.6-0.8C14,99.6,14,99.5,14,99.3z M14,103.5c0.3-0.1,0.4,0.5,0.6,1.1
				C14.4,104.6,14.2,104,14,103.5z M15.4,108c0.2,0.5,0.4,1.1,0.4,1.3c-0.4,0.2-0.4-0.9-0.4-1.1c-0.2-0.5-0.5-0.5-0.5-1.1
				C15,107.1,15.2,107.5,15.4,108z M14.9,71.2c0.1,0.2,0.2,0.5,0.1,1.2C14.7,72.3,14.8,71.7,14.9,71.2z M15.2,77.1
				c0.3,0,0.4,1,0.2,1.4C15.2,78.1,15,78,15.2,77.1z M15.1,78.9c0.2,0.2,0,1.6-0.3,1.3C14.9,79.6,15.1,79.6,15.1,78.9z M15.7,73.6
				c-0.3-0.1-0.2-0.5,0-0.9c0.2-0.4,0.4-0.9,0.3-1.3c-0.1-0.3-0.2,0.1,0-0.7C16.5,71.1,15.6,72.7,15.7,73.6z M22.8,46.1
				c-0.3,0.4-0.6,1.5-0.8,1.1c0.3-0.6,0.6-1.2,1-1.8C23,45.6,23,46.2,22.8,46.1z M26.1,40.2c-0.2-0.3,0.5-1,0.8-1.4
				C26.8,39.2,26.5,39.7,26.1,40.2z M42.3,24.3c-0.1,0.5-0.7,0.5-1.1,0.8C41.4,24.5,42,24.6,42.3,24.3z M37.8,27.9
				c0.4-0.3-0.6,1.2-1,1.3C36.8,28.9,37.8,28.2,37.8,27.9z M39.5,23.7c0.4-0.6,1-0.8,1.5-1.4C41.1,22.7,39.9,23.4,39.5,23.7z
				 M45.4,18.6c0.7-0.6,1.1-0.7,1.6-0.9C46.8,18,45.5,18.8,45.4,18.6z M49.2,17.4c-0.5,0.2-1,0.6-1.4,0.7c-0.2,0,0.6-0.7,0-0.4
				C47.9,17.6,49.1,17,49.2,17.4z"/>
			<path class="st9" d="M58.6,12.6C57.9,13,57,13.4,57,13.9c0.3-0.2,0.7-0.4,0.8-0.3c-0.3,0.2,0,0.3-0.3,0.5
				c-0.4,0.3-0.3-0.1-0.7,0.1c0,0.2-0.5,0.5-0.6,0.8c0.6-0.2,1-0.5,1.6-0.9c0.2,0.2,2.5-0.9,1.9-1.2c-0.6,0.3-0.8,0.6-1.6,0.9
				L58,13.4c0.8,0,2.1-1.3,3.1-1.3c-0.3,0.3-0.5,0.3-1,0.5c0.6,0.5,2.7-1,2.7-1.5c0.5-0.3,0.9-0.3,0.9-0.1c-0.7,0.3-1,0.6-1.3,1
				c0.8-0.5,1.7-1,2-1.5c-0.5,0-1,0-1.6,0.1c-0.8,0.5-0.9,0.8-1.9,1.2C60.2,12.1,59.3,12.3,58.6,12.6z"/>
			<path class="st9" d="M69,7c-0.5,0-0.5,0.2-1.1,0.3c-0.3,0-1.3,0.1-1.5,0.5c0.3-0.1,0.8-0.2,1.3-0.3C68.2,7.4,68.7,7.3,69,7z"/>
			<path class="st9" d="M45.7,30.1c0.5-0.7,1.6-1.1,1.7-1.7c-0.4,0.4-0.7,0.5-0.8,0.3c0.4-0.5,0.6-0.3,1-0.7c-0.1-0.1,0-0.3-0.1-0.4
				c-0.4,0.4-0.8,1.1-0.7,0.5c-0.8,0.7-0.7,1.2-1.2,1.8c-0.1-0.1-0.3,0.1-0.3-0.1c0.2-0.2,0.5-0.5,0.3-0.5c-0.5,0.3-0.2,0.4-0.5,0.7
				c-0.3-0.1-0.9,0.8-0.8,0.9c0.5-0.4,0,0.3,0.2,0.3c0.3-0.3,0.5-0.4,0.7-0.5c0-0.3-0.6,0.2-0.2-0.3C45.3,29.9,45.5,30.1,45.7,30.1z
				"/>
			<path class="st9" d="M37.8,39.8c0.6-0.8,1.2-1.5,1.7-2c0.3-0.3,0.2-0.4,0.5-0.7c0.2-0.3,0.4-0.3,0.6-0.5c0.5-0.6,0.9-1.3,1.4-1.5
				c-0.2-0.1-0.6,0.3-1,0.5c-0.7,1.1-1.6,1.9-2.6,3.3c-0.1-0.2-0.8,0.1-0.7,0.5c0.1-0.2,0.3-0.1,0.1,0.1c-0.4,0.3-0.4,0.7-0.8,1.2
				c-0.3,0.4-1.3,1.2-0.9,1.6C36.6,41.3,37.3,40.5,37.8,39.8z"/>
			<path class="st9" d="M114.9,153.7c1.1-0.2,2.6-0.7,3.4-1.2C117.4,152.9,115.8,153.3,114.9,153.7z"/>
			<path class="st9" d="M91.6,156.8c-0.5,0-1-0.3-1.2,0c1.2,0.1,2.1,0.1,3,0.1c0.9,0,1.6,0,2.3,0c0.5,0,1.5,0.3,1.8-0.2
				c-0.9,0-1.9,0.1-2.9,0.1C93.5,156.8,92.5,156.8,91.6,156.8z"/>
			<path class="st9" d="M122.3,19c-0.5-0.2-0.9-0.3-1.5-0.5c-0.6-0.2-1.2-0.7-1.5-0.5c0.7,0.3,1.2,0.5,1.7,0.7
				C121.5,19,122,19.1,122.3,19z"/>
			<path class="st9" d="M123.4,150.6c0.7-0.3,1.3-0.6,2-0.8c0.8-0.3,1.5-0.8,2.3-1.2c0.7-0.4,1.5-0.8,2.2-1.1c-0.5-0.2-1.3,0.6-2,1
				c-0.8,0.4-1.5,0.7-2.2,1.1c-0.8,0.3-1.5,0.7-2.4,1.1c-0.6,0.3-1.8,0.6-2,1c0.4-0.2,0.8-0.3,1.1-0.5
				C122.8,150.9,123.1,150.8,123.4,150.6z"/>
			<path class="st9" d="M59.3,20.8c0-0.3,0.7-0.6,0.7-0.9c-0.5,0.3-0.6,0.6-1.1,0.9c-0.5,0.3-1.1,0.6-1.7,1
				c-0.6,0.3-1.2,0.7-1.6,1.1c0.5-0.2,1.1-0.6,1.8-1C57.9,21.5,58.6,21.1,59.3,20.8z"/>
			<path class="st9" d="M56.4,19.9c-0.5,0.3-1.1,0.6-1.2,0.9c1.2-0.8,2.7-1.5,4.2-2.4c0.8-0.4,1.5-0.8,2.3-1.2
				c0.7-0.4,1.5-0.8,2.1-1.1c-0.7,0.1-1.7,0.7-2.6,1.2c-0.9,0.5-1.8,0.9-2.2,0.9c-0.5,0.3-0.7,0.8-1.1,0.6c0.2-0.2,0.5-0.5,1-0.8
				c0.3,0,0.5,0.1,1.2-0.3c0.5-0.5-0.7,0.2-0.8,0.2c-0.1,0,0-0.3-0.1-0.3c-0.5,0.1-1,0.6-1.5,0.7c-0.2,0.2,0.1,0.3-0.2,0.5
				c-0.2-0.2-0.9,0.3-0.9,0.5c0.4-0.2,1-0.7,1-0.3C57.5,19.3,57,19.6,56.4,19.9z"/>
			<path class="st9" d="M62.4,19c0.4,0,0.9-0.2,1.1-0.5c-0.8,0.4-1.1,0.3-1.7,0.6c-0.4,0.2-0.7,0.8-1.5,1.1c0,0.3,0.6-0.1,0.8-0.2
				c0.4-0.2,0.7-0.7,1.2-0.7C62.4,19.2,62.3,19.1,62.4,19z"/>
			<path class="st9" d="M57.6,21.1c0-0.4-0.6,0.2-1,0.4c-0.1,0,0.1-0.3,0.1-0.3c-0.6,0.2-0.6,0.4-1,0.4c-0.1,0-0.3,0-0.1-0.2
				c0.3-0.3,0.3,0,0.4-0.1c0.2-0.1,0.5-0.4,0.7-0.4c0.1,0,0.2,0.2,0.6-0.1c0.2,0,0.7,0.4,0.9-0.1c-0.5,0,1.3-0.5,1-0.8
				c-0.6,0.2-1.3,0.7-1.6,0.6c0-0.2,0.1-0.3-0.1-0.2c-0.7,0.6-0.9,0.4-1.5,0.8c-1.1,0.7-2.2,1.7-3.4,2.7l0.1,0.2
				c0.5-0.5,1.2-0.5,1.4-0.9c-0.2,0.1-0.3-0.1,0.1-0.3c0.3-0.1,0.2,0.1,0.1,0.2C55.4,22.3,56.1,21.9,57.6,21.1z M55.5,22
				c-0.5,0.4-0.6,0.2-1,0.4C54.6,22.1,55.6,21.7,55.5,22z"/>
			<path class="st9" d="M18.4,97.3c0.3,0.4,0.5,1.1,0.7,1.6c-0.3,0.3-0.3-0.9-0.5-1c0,0.3,0,0.5-0.1,0.7c0.5,1.2,0.5,2.6,0.8,4
				c0,0.1,0.2,0.3,0.3,0.6c0.2,0.9,0.2,1.7,0.4,2.6c0.1,0.3,0.1,0.5,0.2,0.8c0.3-0.3,0.6-0.7,0.9-1.1c-0.2-0.4-0.5-0.5-0.6-1.4
				c0.2,0.1,0.6,0.6,0.8,1.2c0.1-0.1,0.1-0.2,0.2-0.2c0-0.1,0-0.2,0-0.3c-0.4-0.2-0.7-0.8-1-1.5c-0.1-1.3-0.4-2.4-0.6-4
				c-0.3-0.1-0.4-0.8-0.6-1.2c-0.2-0.1-0.2,0.3-0.3,0c0-0.9,0.2,0,0.5-0.1c-0.3-0.7-0.3-0.9-0.4-1.7c0-0.3-0.2-0.8-0.3-1.1
				c0-0.1,0.1-0.5,0.1-0.7c0,0-0.1-0.2-0.1-0.4c0-0.5-0.2-1.3-0.2-1.9c-0.1-0.5,0.2-1.6-0.2-1.7c-0.2,0.2-0.1,1-0.2,1.5
				c0,0.4-0.2,0.4-0.2,0.9c0,0.7,0.1,1.5,0.2,2.3C18.4,96.1,18.5,96.8,18.4,97.3z M20.6,105.9c0,0.5-0.5-1.4-0.4-1.7
				C20.3,103.8,20.3,105.3,20.6,105.9z M20.2,101.8c0,0.5,0.2,1.2-0.1,1.3c-0.1-0.6-0.3-0.5-0.3-1C20.1,102.2,19.9,101.7,20.2,101.8
				z M19.4,101.3c-0.2-0.7,0.3-0.3,0-1.1c0.1,0,0.2,0.4,0.1,0.4c0.1,0.5,0.4,0.3,0.5,1C19.7,101.8,19.7,101,19.4,101.3z M19.7,99.3
				c0.1,0.7,0.5,1.2,0.1,1.3c0-0.2,0-0.4,0.1-0.5c-0.3-0.7-0.3,0.1-0.6-0.3C19.3,99.5,19.6,99.5,19.7,99.3z"/>
			<path class="st9" d="M36.1,40.4c0.1-0.1,0.1-0.2,0.1-0.2c-0.3,0.4-0.4,0.7-0.6,1.1c-0.8,0.3-1.4,1.9-1.3,2.1
				c0.3-0.4,0.4-0.3,0.7-0.8c-0.6-0.4,1.3-1.6,1.3-2.3C36.2,40.4,36.1,40.4,36.1,40.4z"/>
			<path class="st9" d="M21.1,94.9c0-0.4,0.2-0.6,0-0.8c0,0.4-0.1,0.7-0.3,0.9c0.5,0.8-0.1,1.8,0.5,2.3c-0.1-0.6,0.1-0.9,0-1.5
				C21.3,95.4,21.2,95.2,21.1,94.9z"/>
			<path class="st9" d="M20.5,91.1c0,0.2-0.1,0.2-0.2,0.2c0.4,1.1-0.2,2.1,0.4,2.9c0-0.8,0.2-1.5,0.4-0.5c0-0.9-0.3-1.1-0.5-1.6
				C20.9,92.1,20.7,91,20.5,91.1z"/>
			<path class="st9" d="M19.7,86.1c0.1,0,0.3,0,0.3,0.2c0,1.4-0.2,3.3,0.6,4c0.1-0.4,0.1-0.9,0.2-1.3c-0.8,0-0.4-1.5-0.6-2.7
				c0.1,0,0.1,0.3,0.3,0.2c0-0.7-0.3-0.7-0.5-1.1c-0.2-0.8,0.1-1.6-0.1-2.3c0,0.5-0.3,0.4-0.3,1C19.7,85,20,85.5,19.7,86.1z"/>
			<path class="st9" d="M21.4,104c-0.1-0.4-0.2-0.4-0.3-0.8c-0.2-0.6-0.5-3.5-0.7-3.1c0.3,1.2,0.3,2.2,0.5,3.2
				C21.1,103.1,21.1,104.4,21.4,104z"/>
			<path class="st9" d="M18.9,78.7c-0.2-0.7,0.4-2.5,0-2.1c0-0.9,0.5-1.6,0.1-1.9c-0.3,0.5-0.2,1.5-0.3,2.3
				C18.7,77.5,18.5,78.8,18.9,78.7z"/>
			<path class="st9" d="M19.1,89.3c-0.1-0.5-0.1-1.1-0.1-1.7c0-0.7-0.1-1.5-0.1-1.7c0,0.2,0.4-1.4,0.1-1.3c0.1,0.4-0.1,0.9-0.2,1.3
				c0,0.6,0.1,1.1,0.1,1.7c0,1-0.2,1.9,0.1,2.6C18.9,89.7,18.9,89.4,19.1,89.3z"/>
			<path class="st9" d="M20.7,98.3c-0.1,0.6,0.3,0.6-0.2,0.5c0.5,0.9,0.2,2.6,0.9,2.6C20.9,100.3,21.3,98.9,20.7,98.3z"/>
			<path class="st9" d="M18.5,83.3c0.3,0.2,0.5,0.1,0.6,0.9c0,0.7,0.1,1.3,0.4,1.3c0.1-0.9-0.2-0.7-0.2-1.3c0-0.4,0.3-0.3,0.2-0.8
				c-0.1,0-0.3,0-0.3-0.2c0.2-0.8-0.1-0.9,0-1.7l0.3,0c0,0.6-0.1,1.2,0.1,1.3c0.2-1-0.1-1,0-2.1c0.2-0.2,0.3-1,0.1-1.3
				c0.1,0.4-0.3,1-0.4,1.2c0,0,0.1,0.1,0.1,0.2c-0.1,0.3-0.2,0.3-0.4,0.2c0.1,0.1,0.1-0.3,0-0.4c-0.1-0.2-0.4,0.1-0.2-0.4
				c0.2-0.1,0.5,0.3,0.5-0.4c-0.3,0.1-0.5-0.2-0.6-0.5c0,1-0.3,2.5-0.1,3.2c0-0.2,0.2-0.3,0.2,0C18.9,83.3,18.4,82.5,18.5,83.3z"/>
			<path class="st9" d="M21.4,76.2c-0.1,0.8-0.2,1.3-0.3,0.6c-0.1,0.4,0.1,1.5,0.1,2.3c0.2-0.5,0-0.9,0.2-1.4
				C21.2,77.7,21.7,75.6,21.4,76.2z"/>
			<path class="st9" d="M22.7,85.3c-0.1,0.7,0.2,2.3,0.3,3.4c0.5,0.1,0.2-1.4,0-1.6C23.1,86.3,23.1,85.6,22.7,85.3z"/>
			<path class="st9" d="M20.5,76.3c-0.1,1,0.4-0.2,0.4,0.5c0.1-0.8-0.2-0.7-0.3-1.1c0-0.9,0.4-0.7,0.4-1.6c-0.3-0.2-0.2,0.7-0.4,0.1
				c-0.3,1.1-0.2,2.1-0.5,2.9C20.3,77.4,20.3,76.4,20.5,76.3z"/>
			<path class="st9" d="M19.8,74.9c0.3,0.6-0.2,0.9-0.3,1.2c-0.2,0.6-0.2,1.3-0.4,1.9c0.3,0.2,0.2-0.5,0.3-0.8
				c0.2,0.1,0.1-0.3,0.2-0.6c0-0.1,0.2-0.1,0.2-0.2c0.1-0.2,0-0.6,0.1-0.8c0-0.1,0.5-0.7,0.2-0.8c-0.3,0.8-0.1-0.5-0.2-0.5
				c-0.1,0.3-0.2,0.4-0.3,0.4c0-0.2,0-0.4,0-0.4c0.1,0.9-0.3,0.8-0.3,1.9C19.6,76.3,19.6,75.3,19.8,74.9z"/>
			<path class="st9" d="M23.5,76.7c0,0.3,0.1,0.6,0.1,1c0,0.4-0.2,1.2,0.1,1.2c0.2-0.6-0.1-1.1,0-2c0.1-1.1,0.6-2.5,0.5-3.6
				c-0.3,1-0.3,0.9-0.3,2c-0.3,0.2-0.2,0.8-0.2,1C23.7,76.5,23.6,76.5,23.5,76.7z"/>
			<path class="st9" d="M20,80.5c0,0.2-0.1,0.6,0,0.8c0.2,0.1,0.5-0.7,0.3-1c-0.4,0.3,0-1.1,0.1-1.7c-0.3-0.3-0.2,0.8-0.5,0.6
				c0-0.7,0.2-0.6,0.3-1c-0.4-0.1-0.3,0.7-0.3,1.2c0,0.3-0.1,0.6-0.1,0.8C19.9,80.3,20,80.4,20,80.5z"/>
			<path class="st9" d="M20.1,95.2c-0.6-0.1,0,2,0.4,1.7c-0.1-0.5,0.1-0.6,0-1.1c-0.1-0.8-0.5-1.5-0.9-1.6c0.1,1,0.5,0.5,0.7,1.4
				c0,0.2-0.1,0.9-0.2,0.5C19.9,95.5,20.2,95.6,20.1,95.2z"/>
			<path class="st9" d="M19.1,91.4c0.2,0.9,0.3,0.3,0.7,0.8c0-0.6,0.3-0.3,0.2-0.9c0-0.2-0.2-0.2-0.2-0.6c0-0.5,0.3-0.4,0.2-1.1
				c-0.1-0.4-0.2-0.8-0.5-0.8c-0.1,0.8,0.1,1,0.2,1.9c-0.3,0.2-0.2-0.6-0.5-0.4l0,0.4c-0.1,0-0.1,0.2,0,0.2c0.1-0.6,0.5,0.1,0.5,0.6
				C19.4,91.8,19.4,91.3,19.1,91.4z"/>
			<path class="st9" d="M21.9,98.6c-0.1-0.8-0.2-1.5-0.3-1.9c-0.1-0.2-0.1-0.1-0.2,0c0.1,0.7,0.1,1.4,0.3,2.1
				c0.2,0.7,0.4,1.4,0.6,2.2c0.1,0.8,0.3,0.7,0.1,0C22.2,100.3,22,99.4,21.9,98.6z"/>
			<path class="st9" d="M22.3,103.9c0-0.1,0-0.2-0.1-0.4c-0.5-0.2-0.4-1-0.6-1.8c-0.4,0.2,0.1,1.6,0.4,2.6
				C22.1,104.2,22.2,104.1,22.3,103.9z"/>
		</g>
	</g>
</g>
</svg>
