<?xml version="1.0" encoding="utf-8"?>
<!-- Generator: Adobe Illustrator 22.1.0, SVG Export Plug-In . SVG Version: 6.00 Build 0)  -->
<svg version="1.1" id="Layer_1" xmlns="http://www.w3.org/2000/svg" xmlns:xlink="http://www.w3.org/1999/xlink" x="0px" y="0px"
	 viewBox="0 0 509 425" style="enable-background:new 0 0 509 425;" xml:space="preserve">
<style type="text/css">
	.st0{fill:#017BA2;}
</style>
<path class="st0" d="M6,368c0,0,78,46,127,45s43,0,43,0s76-4,117-28s55-36,55-36s45-41,63-75s28-61,28-61s14-48,14-71s0-32,0-32
	s43-35,49-50l1-3c0,0-21,13-56,15c0,0,43-32,44-57c0,0-45,26-65,26c0,0-31-31-60-31s-26,0-26,0s-32,0-53,20s-23,26-23,26
	s-15,22-15,53c0,0,0,11,2,25c0,0-111,5-212-107c0,0-43,80,31,137c0,0-23,1-44-14c0,0-6,81,80,103l-45,1c0,0,17,67,94,71
	C155,325,115,374,6,368z"/>
</svg>
